<svg width="327" height="190" viewBox="0 0 327 190" fill="none" xmlns="http://www.w3.org/2000/svg">
<rect x="0.443359" width="326.279" height="189.804" fill="#001AFF"/>
<path d="M84.0376 79.9947H86.4235V103.854H74.4941V79.9947H76.88V100.445H79.2659V79.9947H81.6517V100.445H84.0376V79.9947ZM88.84 79.9947H100.769V83.4031H95.9977V103.854H93.6118V83.4031H88.84V79.9947ZM110.31 83.4031H107.924V79.9947H110.31V83.4031ZM107.924 83.4031V86.8115H106.322V90.2199H105.539V93.6283H112.696V90.2199H111.912V86.8115H110.31V83.4031H113.48V86.8115H115.082V103.854H112.696V97.0367H105.539V103.854H103.153V86.8115H104.755V83.4031H107.924ZM117.465 79.9947H129.395V83.4031H119.851V90.2199H127.009V93.6283H129.395V97.0367H128.611V100.445H127.009V103.854H117.465V79.9947ZM119.851 93.6283V100.411H127.009V93.6283H119.851ZM131.811 95.3325V91.9923H135.731V95.3325H131.811ZM138.102 79.9947H140.488V90.2199H142.09V93.6283H140.488V103.854H138.102V79.9947ZM146.044 79.9947H148.43V83.4031H146.044V86.8115H144.476V90.2199H142.09V86.8115H144.476V83.4031H146.044V79.9947ZM144.476 93.6283V97.0367H146.862V100.445H143.658V97.0367H142.09V93.6283H144.476ZM146.862 103.854V100.445H150.031V103.854H146.862ZM154.834 83.4031V90.2199H161.208V83.4031H163.593V86.8115H164.377V90.2199H161.992V93.6283H164.377V97.0367H163.593V100.445H161.208V93.6283H154.834V100.445H161.208V103.854H152.448V79.9947H161.208V83.4031H154.834ZM173.918 83.4031H171.532V79.9947H173.918V83.4031ZM171.532 83.4031V86.8115H169.93V90.2199H169.147V93.6283H176.304V90.2199H175.52V86.8115H173.918V83.4031H177.088V86.8115H178.69V103.854H176.304V97.0367H169.147V103.854H166.761V86.8115H168.363V83.4031H171.532ZM191.401 83.4031H193.003V93.6283H191.401V97.0367H183.459V103.854H181.073V79.9947H191.401V83.4031ZM183.459 93.6283H189.833V90.2199H191.401V86.8115H189.833V83.4031H183.459V93.6283ZM195.386 79.9947H207.315V83.4031H202.544V103.854H200.158V83.4031H195.386V79.9947ZM219.242 79.9947H221.628V103.854H219.242V90.2199H216.856V93.6283H214.47V90.2199H216.856V86.8115H218.458V83.4031H219.242V79.9947ZM209.698 79.9947H212.084V93.6283H214.47V97.0367H212.868V100.445H212.084V103.854H209.698V79.9947ZM234.372 83.4031H235.974V93.6283H234.372V97.0367H226.43V103.854H224.044V79.9947H234.372V83.4031ZM226.43 93.6283H232.804V90.2199H234.372V86.8115H232.804V83.4031H226.43V93.6283ZM245.515 83.4031H243.129V79.9947H245.515V83.4031ZM243.129 83.4031V86.8115H241.527V90.2199H240.743V93.6283H247.901V90.2199H247.117V86.8115H245.515V83.4031H248.684V86.8115H250.286V103.854H247.901V97.0367H240.743V103.854H238.357V86.8115H239.959V83.4031H243.129Z" fill="white"/>
</svg>
