<svg width="648" height="610" viewBox="0 0 648 610" fill="none" xmlns="http://www.w3.org/2000/svg">
<path d="M401.244 39.002L449.912 82.4223V519.139L401.244 475.719V39.002Z" fill="#797979"/>
<path d="M647.486 39.002L598.092 82.4223V519.139L647.486 475.719V39.002Z" fill="#D9D9D9"/>
<path d="M449.91 82.585H599.545V519.14H449.91V82.585Z" fill="#D9D9D9"/>
<path d="M450.369 82.5849L401.244 39.0432L450.369 0.503906L599.358 0.503971L647.487 39.0433L599.358 82.585L450.369 82.5849Z" fill="#ECECEC"/>
<path d="M299.425 456.669L492.042 456.671L421.709 394.931L229.092 394.929L299.425 456.669Z" fill="#ECECEC"/>
<path d="M229.092 394.929L303.183 457.497V609.937L229.092 547.369V394.929Z" fill="#797979"/>
<path d="M303.182 456.671H492.041V609.937H303.182V456.671Z" fill="#D9D9D9"/>
<path d="M145.5 282.34H436.11L387.636 238.757H96.8908L145.5 282.34Z" fill="#ECECEC"/>
<path d="M96.8906 238.757L146.285 282.219V407.277L96.8906 363.815V238.757Z" fill="#797979"/>
<path d="M146.283 282.34H436.109V407.277H146.283V282.34Z" fill="#D9D9D9"/>
<path d="M90.0429 437.785H280.664L244.328 407.126L52.5801 404.372L90.0429 437.785Z" fill="#ECECEC"/>
<path d="M52.5801 404.372L91.0782 437.77V519.14L52.5801 485.742V404.372Z" fill="#797979"/>
<path d="M91.0781 437.785H280.663V519.14H91.0781V437.785Z" fill="#D9D9D9"/>
<path d="M269.623 475.503V437.673H279.695V444.073H272.356V452.459H279.175V458.833H272.356V469.129H279.943V475.503H269.623Z" fill="#001AFF"/>
<path d="M257.604 475.503V437.673H260.212V462.884L265.699 437.673H268.443V475.503H265.835V450.834L260.359 475.503H257.604Z" fill="#001AFF"/>
<path d="M245.539 475.503V437.673H248.272V452.563H253.646V437.673H256.39V475.503H253.646V458.962H248.272V475.503H245.539Z" fill="#001AFF"/>
<path d="M234.51 475.503V437.673H244.582V444.073H237.242V452.459H244.062V458.833H237.242V469.129H244.83V475.503H234.51Z" fill="#001AFF"/>
<path d="M230.552 475.503V444.047H226.488V460.227C226.488 464.441 226.431 467.564 226.318 469.594C226.213 471.606 225.946 473.138 225.517 474.187C225.095 475.236 224.406 475.761 223.45 475.761C223.172 475.761 222.596 475.675 221.723 475.503V469.542H222.321C222.908 469.542 223.292 469.327 223.473 468.897C223.661 468.45 223.755 467.357 223.755 465.62V437.673H233.285V475.503H230.552Z" fill="#001AFF"/>
<path d="M210.727 437.673H216.158C217.641 437.673 218.683 437.983 219.285 438.602C219.888 439.222 220.396 440.314 220.81 441.879C221.224 443.445 221.431 445.217 221.431 447.195C221.431 449.019 221.254 450.67 220.9 452.15C220.546 453.612 220.087 454.696 219.522 455.401C220.328 456.055 220.956 457.173 221.408 458.756C221.867 460.338 222.097 462.265 222.097 464.536C222.097 467.288 221.807 469.62 221.227 471.529C220.648 473.421 219.963 474.591 219.172 475.038C218.623 475.348 217.347 475.503 215.345 475.503H210.727V437.673ZM213.459 443.97V452.717H215.266C216.35 452.717 217.02 452.674 217.275 452.588C217.742 452.416 218.107 451.969 218.371 451.247C218.634 450.507 218.766 449.509 218.766 448.253C218.766 447.135 218.657 446.232 218.438 445.544C218.228 444.838 217.968 444.4 217.659 444.228C217.358 444.056 216.485 443.97 215.04 443.97H213.459ZM213.459 459.014V469.129H216C217.114 469.129 217.829 469 218.145 468.742C218.461 468.467 218.725 467.942 218.935 467.168C219.154 466.377 219.263 465.379 219.263 464.175C219.263 462.936 219.146 461.921 218.913 461.13C218.687 460.321 218.382 459.771 217.998 459.478C217.622 459.169 216.846 459.014 215.672 459.014H213.459Z" fill="#001AFF"/>
<path d="M210.899 475.503H207.918L206.732 466.91H201.312L200.194 475.503H197.281L202.566 437.673H205.467L210.899 475.503ZM205.851 460.536L203.988 446.499L202.148 460.536H205.851Z" fill="#001AFF"/>
<path d="M187.633 475.503V437.673H192.036C193.677 437.673 194.75 437.854 195.254 438.215C196.06 438.8 196.722 440.047 197.242 441.957C197.769 443.866 198.032 446.327 198.032 449.337C198.032 452.072 197.806 454.369 197.355 456.227C196.903 458.068 196.338 459.366 195.661 460.123C194.983 460.863 193.817 461.233 192.161 461.233H190.365V475.503H187.633ZM190.365 444.073V454.808H191.878C192.895 454.808 193.583 454.644 193.945 454.317C194.313 453.99 194.615 453.406 194.848 452.563C195.081 451.702 195.198 450.653 195.198 449.414C195.198 448.159 195.078 447.101 194.837 446.24C194.596 445.38 194.298 444.804 193.945 444.512C193.591 444.219 192.842 444.073 191.698 444.073H190.365Z" fill="#001AFF"/>
<path d="M178.334 475.503H175.602V437.673H186.441V475.503H183.72V444.047H178.334V475.503Z" fill="#001AFF"/>
<path d="M169.01 464.82L164.02 437.673H167.091L170.241 457.311L172.974 437.673H175.808L171.235 466.42C170.67 469.929 170.124 472.398 169.597 473.826C169.07 475.254 168.438 475.967 167.7 475.967C166.993 475.967 166.361 475.813 165.804 475.503V469.852C166.255 469.921 166.598 469.955 166.831 469.955C167.493 469.955 167.956 469.637 168.22 469C168.491 468.364 168.754 466.97 169.01 464.82Z" fill="#001AFF"/>
<path d="M581.764 121.331V83.2476H587.242L590.532 109.225L593.792 83.2476H599.285V121.331H595.89V91.3526L592.283 121.331H588.751L585.174 91.3526V121.331H581.764Z" fill="#001AFF"/>
<path d="M563.508 102.523C563.508 97.9851 563.895 94.253 564.67 91.3262C565.455 88.382 566.476 86.1912 567.734 84.7538C568.991 83.3164 570.515 82.5977 572.306 82.5977C574.902 82.5977 577.015 84.3035 578.645 87.7153C580.285 91.127 581.105 95.9849 581.105 102.289C581.105 108.662 580.24 113.641 578.509 117.226C576.99 120.395 574.927 121.98 572.321 121.98C569.695 121.98 567.623 120.413 566.104 117.278C564.373 113.693 563.508 108.775 563.508 102.523ZM567.281 102.263C567.281 106.644 567.764 109.935 568.73 112.134C569.695 114.317 570.893 115.408 572.321 115.408C573.76 115.408 574.953 114.325 575.898 112.16C576.844 109.978 577.317 106.636 577.317 102.133C577.317 97.7167 576.854 94.4522 575.928 92.3393C575.013 90.2265 573.811 89.17 572.321 89.17C570.832 89.17 569.62 90.2351 568.684 92.3653C567.749 94.4955 567.281 97.7946 567.281 102.263Z" fill="#001AFF"/>
<path d="M549.494 121.331V83.2476H555.38C557.573 83.2476 559.007 83.4294 559.681 83.7931C560.758 84.3819 561.643 85.6375 562.337 87.5599C563.042 89.4822 563.394 91.9588 563.394 94.9895C563.394 97.7432 563.092 100.055 562.488 101.926C561.885 103.779 561.13 105.086 560.224 105.848C559.319 106.593 557.759 106.965 555.546 106.965H553.146V121.331H549.494ZM553.146 89.69V100.497H555.169C556.527 100.497 557.448 100.332 557.931 100.003C558.424 99.6742 558.826 99.0853 559.138 98.2367C559.45 97.3708 559.606 96.3144 559.606 95.0674C559.606 93.8032 559.445 92.7381 559.123 91.8722C558.801 91.0063 558.403 90.4261 557.931 90.1317C557.458 89.8373 556.457 89.69 554.927 89.69H553.146Z" fill="#001AFF"/>
<path d="M547.595 114.888H549.164V129.618H546.161V121.331H534.706V129.618H531.703V114.888H533.212C533.806 112.221 534.264 109 534.586 105.225C534.908 101.449 535.069 95.8208 535.069 88.3392V83.2476H547.595V114.888ZM543.943 89.6641H538.54C538.54 100.904 538.042 109.312 537.046 114.888H543.943V89.6641Z" fill="#001AFF"/>
<path d="M515.307 102.523C515.307 97.9851 515.694 94.253 516.469 91.3262C517.253 88.382 518.275 86.1912 519.532 84.7538C520.79 83.3164 522.314 82.5977 524.105 82.5977C526.701 82.5977 528.814 84.3035 530.444 87.7153C532.084 91.127 532.904 95.9849 532.904 102.289C532.904 108.662 532.039 113.641 530.308 117.226C528.789 120.395 526.726 121.98 524.12 121.98C521.494 121.98 519.422 120.413 517.902 117.278C516.172 113.693 515.307 108.775 515.307 102.523ZM519.08 102.263C519.08 106.644 519.563 109.935 520.528 112.134C521.494 114.317 522.692 115.408 524.12 115.408C525.559 115.408 526.751 114.325 527.697 112.16C528.643 109.978 529.116 106.636 529.116 102.133C529.116 97.7167 528.653 94.4522 527.727 92.3393C526.812 90.2265 525.609 89.17 524.12 89.17C522.631 89.17 521.419 90.2351 520.483 92.3653C519.547 94.4955 519.08 97.7946 519.08 102.263Z" fill="#001AFF"/>
<path d="M497.018 121.331V83.2476H502.496L505.786 109.225L509.046 83.2476H514.539V121.331H511.144V91.3526L507.537 121.331H504.005L500.428 91.3526V121.331H497.018Z" fill="#001AFF"/>
<path d="M492.557 107.328L496.104 109.692C495.551 113.953 494.63 117.07 493.342 119.044C492.054 121.001 490.47 121.98 488.588 121.98C486.224 121.98 484.307 120.413 482.838 117.278C481.148 113.658 480.303 108.775 480.303 102.627C480.303 96.1321 481.153 91.0491 482.853 87.3776C484.332 84.191 486.319 82.5977 488.815 82.5977C490.847 82.5977 492.547 83.7926 493.916 86.1826C494.892 87.8798 495.606 90.3996 496.059 93.7421L492.437 95.5606C492.205 93.4997 491.742 91.9237 491.048 90.8326C490.364 89.7242 489.554 89.17 488.618 89.17C487.28 89.17 486.189 90.1745 485.343 92.1834C484.498 94.1924 484.076 97.5089 484.076 102.133C484.076 106.93 484.488 110.342 485.313 112.368C486.138 114.394 487.21 115.408 488.528 115.408C489.494 115.408 490.329 114.767 491.033 113.485C491.737 112.186 492.245 110.134 492.557 107.328Z" fill="#001AFF"/>
<path d="M462.637 102.523C462.637 97.9851 463.024 94.253 463.799 91.3262C464.584 88.382 465.605 86.1912 466.862 84.7538C468.12 83.3164 469.644 82.5977 471.435 82.5977C474.031 82.5977 476.144 84.3035 477.774 87.7153C479.414 91.127 480.234 95.9849 480.234 102.289C480.234 108.662 479.369 113.641 477.638 117.226C476.119 120.395 474.056 121.98 471.45 121.98C468.824 121.98 466.752 120.413 465.233 117.278C463.502 113.693 462.637 108.775 462.637 102.523ZM466.41 102.263C466.41 106.644 466.893 109.935 467.859 112.134C468.824 114.317 470.022 115.408 471.45 115.408C472.889 115.408 474.081 114.325 475.027 112.16C475.973 109.978 476.446 106.636 476.446 102.133C476.446 97.7167 475.983 94.4522 475.057 92.3393C474.142 90.2265 472.939 89.17 471.45 89.17C469.961 89.17 468.749 90.2351 467.813 92.3653C466.878 94.4955 466.41 97.7946 466.41 102.263Z" fill="#001AFF"/>
<path d="M450.115 121.331V83.2472H453.767V99.4573C454.582 99.2841 455.146 98.8165 455.458 98.0545C455.77 97.2752 456.182 95.4134 456.695 92.4693C457.208 89.5251 457.742 87.3863 458.295 86.0528C458.848 84.7019 459.437 83.8793 460.061 83.5849C460.685 83.2905 461.756 83.0827 463.275 82.9614V88.6765H462.762C461.726 88.6765 461.022 89.0922 460.649 89.9235C460.287 90.7374 459.91 92.3221 459.517 94.6774C459.135 97.0327 458.803 98.6 458.521 99.3794C458.25 100.159 457.807 100.929 457.193 101.691C457.998 102.263 458.652 103.189 459.155 104.471C459.668 105.753 460.282 107.9 460.996 110.913L463.472 121.331H459.17L456.982 111.485C456.429 108.974 455.951 107.225 455.548 106.238C455.156 105.233 454.562 104.713 453.767 104.679V121.331H450.115Z" fill="#001AFF"/>
<path d="M491.387 532.663H487.928L486.553 524.147H480.265L478.968 532.663H475.588L481.719 495.175H485.085L491.387 532.663ZM485.531 517.831L483.369 503.921L481.234 517.831H485.531Z" fill="#001AFF"/>
<path d="M463.201 532.663V495.175H466.371V509.93H472.607V495.175H475.79V532.663H472.607V516.271H466.371V532.663H463.201Z" fill="#001AFF"/>
<path d="M447.303 514.149C447.303 509.682 447.639 506.009 448.311 503.128C448.993 500.229 449.879 498.073 450.971 496.658C452.062 495.243 453.386 494.536 454.94 494.536C457.193 494.536 459.027 496.215 460.442 499.573C461.866 502.931 462.577 507.713 462.577 513.919C462.577 520.192 461.826 525.093 460.324 528.622C459.005 531.742 457.215 533.301 454.953 533.301C452.674 533.301 450.875 531.759 449.556 528.673C448.054 525.144 447.303 520.303 447.303 514.149ZM450.578 513.893C450.578 518.206 450.997 521.445 451.835 523.61C452.674 525.758 453.713 526.832 454.953 526.832C456.202 526.832 457.237 525.766 458.058 523.636C458.879 521.488 459.289 518.197 459.289 513.765C459.289 509.418 458.888 506.205 458.084 504.125C457.289 502.045 456.246 501.005 454.953 501.005C453.661 501.005 452.608 502.054 451.796 504.15C450.984 506.247 450.578 509.495 450.578 513.893Z" fill="#001AFF"/>
<path d="M440.599 516.91H439.905V511.234C442.123 511.455 443.233 509.554 443.233 505.531C443.233 504.065 443.014 502.897 442.578 502.028C442.15 501.159 441.56 500.724 440.809 500.724C439.517 500.724 438.678 502.292 438.294 505.429L435.202 503.69C435.84 497.587 437.731 494.536 440.875 494.536C442.569 494.536 443.931 495.448 444.962 497.272C445.992 499.079 446.508 501.414 446.508 504.278C446.508 507.841 445.639 510.705 443.901 512.87C445.997 514.66 447.045 517.797 447.045 522.28C447.045 525.707 446.512 528.4 445.446 530.361C444.39 532.321 442.892 533.301 440.953 533.301C439.311 533.301 438.023 532.662 437.089 531.384C436.154 530.105 435.429 527.65 434.914 524.019L437.835 521.718C438.124 523.866 438.499 525.306 438.962 526.039C439.425 526.755 440.062 527.113 440.875 527.113C441.757 527.113 442.46 526.653 442.984 525.732C443.508 524.795 443.77 523.559 443.77 522.025C443.77 520.422 443.49 519.169 442.931 518.266C442.381 517.362 441.604 516.91 440.599 516.91Z" fill="#001AFF"/>
<path d="M489.183 494.076H486.013V478.426H485.358C484.624 478.426 484.092 478.571 483.76 478.861C483.428 479.134 483.114 479.645 482.817 480.395C482.52 481.128 481.956 482.969 481.127 485.918L478.821 494.076H475.035L476.948 486.762C477.716 483.83 478.323 481.801 478.769 480.676C479.214 479.534 479.777 478.486 480.459 477.531C479.131 477.071 478.105 475.946 477.38 474.156C476.664 472.366 476.306 470.005 476.306 467.073C476.306 464.754 476.542 462.768 477.013 461.114C477.485 459.444 478.087 458.276 478.821 457.611C479.555 456.929 480.777 456.588 482.489 456.588H489.183V494.076ZM486.013 472.442V462.93H483.524C482.1 462.93 481.24 463.024 480.943 463.211C480.524 463.484 480.192 463.987 479.948 464.72C479.703 465.436 479.581 466.391 479.581 467.584C479.581 468.828 479.703 469.826 479.948 470.576C480.192 471.326 480.511 471.829 480.904 472.084C481.297 472.323 482.214 472.442 483.655 472.442H486.013Z" fill="#001AFF"/>
<path d="M476.717 494.076H473.258L471.883 485.56H465.595L464.298 494.076H460.918L467.049 456.588H470.415L476.717 494.076ZM470.861 479.244L468.699 465.334L466.564 479.244H470.861Z" fill="#001AFF"/>
<path d="M448.527 494.076V456.588H451.698V471.343H457.933V456.588H461.116V494.076H457.933V477.685H451.698V494.076H448.527Z" fill="#001AFF"/>
<path d="M435.723 494.076V456.588H440.832C442.736 456.588 443.98 456.767 444.565 457.125C445.5 457.705 446.268 458.941 446.871 460.833C447.482 462.725 447.788 465.163 447.788 468.147C447.788 470.857 447.526 473.133 447.002 474.974C446.478 476.798 445.823 478.085 445.037 478.835C444.251 479.568 442.897 479.935 440.976 479.935H438.893V494.076H435.723ZM438.893 462.93V473.568H440.648C441.827 473.568 442.626 473.406 443.046 473.082C443.474 472.758 443.823 472.178 444.094 471.343C444.364 470.491 444.5 469.451 444.5 468.223C444.5 466.979 444.36 465.93 444.08 465.078C443.801 464.226 443.456 463.655 443.046 463.365C442.635 463.075 441.766 462.93 440.439 462.93H438.893Z" fill="#001AFF"/>
<path d="M422.939 494.076V456.588H434.625V462.93H426.11V471.241H434.022V477.557H426.11V487.76H434.913V494.076H422.939Z" fill="#001AFF"/>
<path d="M415.401 456.588V460.296C419.995 460.739 422.292 465.649 422.292 475.025C422.292 484.384 419.995 489.285 415.401 489.729V494.076H412.231V489.729C407.672 489.302 405.393 484.401 405.393 475.025C405.393 465.632 407.672 460.722 412.231 460.296V456.588H415.401ZM415.401 466.638V483.387C417.916 483.387 419.174 480.557 419.174 474.897C419.174 469.391 417.916 466.638 415.401 466.638ZM412.231 483.387V466.638C409.742 466.638 408.497 469.451 408.497 475.076C408.497 480.617 409.742 483.387 412.231 483.387Z" fill="#001AFF"/>
<path d="M398.441 483.489L392.65 456.588H396.214L399.869 476.048L403.039 456.588H406.327L401.021 485.075C400.366 488.552 399.733 490.999 399.122 492.413C398.51 493.828 397.777 494.536 396.921 494.536C396.1 494.536 395.366 494.382 394.72 494.076V488.476C395.244 488.544 395.642 488.578 395.912 488.578C396.681 488.578 397.218 488.262 397.524 487.632C397.838 487.001 398.144 485.62 398.441 483.489Z" fill="#001AFF"/>
<path d="M380.367 494.076V456.588H392.144V462.904H383.537V471.496H388.044C389.747 471.496 391.083 472.536 392.052 474.616C393.022 476.679 393.507 479.415 393.507 482.824C393.507 485.791 393.092 488.407 392.262 490.675C391.441 492.942 390.035 494.076 388.044 494.076H380.367ZM383.537 477.838V487.734H386.891C387.764 487.734 388.393 487.623 388.777 487.402C389.17 487.163 389.511 486.626 389.799 485.791C390.096 484.955 390.245 483.984 390.245 482.875C390.245 479.517 389.17 477.838 387.022 477.838H383.537Z" fill="#001AFF"/>
<path d="M435.88 321.147H432.615V304.638H431.94C431.184 304.638 430.636 304.791 430.294 305.097C429.952 305.385 429.628 305.924 429.322 306.715C429.016 307.489 428.436 309.431 427.581 312.542L425.206 321.147H421.307L423.277 313.432C424.068 310.339 424.694 308.199 425.152 307.012C425.611 305.807 426.191 304.701 426.893 303.694C425.526 303.209 424.469 302.022 423.722 300.133C422.984 298.245 422.616 295.755 422.616 292.661C422.616 290.216 422.858 288.121 423.344 286.376C423.83 284.614 424.451 283.382 425.206 282.681C425.962 281.961 427.222 281.602 428.985 281.602H435.88V321.147ZM432.615 298.326V288.291H430.051C428.584 288.291 427.698 288.39 427.392 288.588C426.961 288.876 426.619 289.406 426.367 290.18C426.115 290.935 425.989 291.942 425.989 293.201C425.989 294.514 426.115 295.566 426.367 296.357C426.619 297.148 426.947 297.679 427.352 297.948C427.757 298.2 428.701 298.326 430.186 298.326H432.615Z" fill="#001AFF"/>
<path d="M423.038 321.147H419.475L418.058 312.164H411.581L410.245 321.147H406.764L413.079 281.602H416.547L423.038 321.147ZM417.006 305.502L414.779 290.827L412.58 305.502H417.006Z" fill="#001AFF"/>
<path d="M394.004 321.147V281.602H397.269V297.166H403.693V281.602H406.972V321.147H403.693V303.856H397.269V321.147H394.004Z" fill="#001AFF"/>
<path d="M386.438 304.53H385.723V298.542C388.008 298.776 389.151 296.771 389.151 292.527C389.151 290.98 388.926 289.748 388.476 288.831C388.035 287.914 387.428 287.455 386.654 287.455C385.323 287.455 384.459 289.11 384.064 292.419L380.879 290.584C381.536 284.146 383.483 280.927 386.722 280.927C388.467 280.927 389.87 281.889 390.932 283.814C391.994 285.72 392.524 288.184 392.524 291.205C392.524 294.963 391.629 297.985 389.839 300.268C391.998 302.157 393.078 305.466 393.078 310.195C393.078 313.81 392.529 316.651 391.431 318.719C390.343 320.788 388.8 321.822 386.803 321.822C385.112 321.822 383.785 321.147 382.822 319.798C381.859 318.45 381.113 315.86 380.582 312.03L383.591 309.602C383.888 311.868 384.275 313.387 384.752 314.161C385.228 314.916 385.885 315.294 386.722 315.294C387.63 315.294 388.355 314.808 388.894 313.837C389.434 312.848 389.704 311.544 389.704 309.926C389.704 308.235 389.416 306.913 388.84 305.96C388.274 305.007 387.473 304.53 386.438 304.53Z" fill="#001AFF"/>
<path d="M368.562 321.147V281.602H380.599V288.291H371.828V297.058H379.978V303.721H371.828V314.484H380.896V321.147H368.562Z" fill="#001AFF"/>
<path d="M357.435 321.147H354.17V281.602H367.124V321.147H363.872V288.264H357.435V321.147Z" fill="#001AFF"/>
<path d="M354.334 321.147H350.772L349.355 312.164H342.878L341.542 321.147H338.061L344.376 281.602H347.844L354.334 321.147ZM348.303 305.502L346.076 290.827L343.876 305.502H348.303Z" fill="#001AFF"/>
<path d="M326.529 321.147V281.602H331.792C333.753 281.602 335.035 281.79 335.638 282.168C336.6 282.779 337.392 284.083 338.013 286.079C338.642 288.076 338.957 290.647 338.957 293.794C338.957 296.654 338.687 299.054 338.148 300.997C337.608 302.921 336.933 304.279 336.124 305.07C335.314 305.843 333.92 306.23 331.94 306.23H329.795V321.147H326.529ZM329.795 288.291V299.513H331.603C332.818 299.513 333.641 299.342 334.072 299.001C334.513 298.659 334.873 298.047 335.152 297.166C335.431 296.267 335.57 295.17 335.57 293.875C335.57 292.562 335.426 291.456 335.139 290.557C334.851 289.658 334.495 289.056 334.072 288.75C333.65 288.444 332.755 288.291 331.387 288.291H329.795Z" fill="#001AFF"/>
<path d="M318.276 321.147V288.291H313.459V281.602H326.346V288.291H321.542V321.147H318.276Z" fill="#001AFF"/>
<path d="M15.3141 26.6533H91.8052L76.7724 12.8521H0.28125L15.3141 26.6533Z" fill="#ECECEC"/>
<path d="M0.28125 12.8521L14.8089 25.9657V63.6987L0.28125 50.585V12.8521Z" fill="#797979"/>
<rect x="14.8086" y="26.6533" width="76.9963" height="38.4982" fill="#D9D9D9"/>
<path d="M76.9745 26.0737H80.1984V42.6069C80.8124 42.4832 81.2637 41.971 81.5521 41.0701C81.8405 40.1516 82.2685 37.9525 82.8361 34.4728C83.4036 30.993 84.0363 28.6791 84.7341 27.531C85.4319 26.3828 86.7717 25.7999 88.7535 25.7823V31.6113H88.265C87.3067 31.6113 86.66 32.0352 86.3251 32.883C85.9901 33.7132 85.6226 35.4354 85.2226 38.0497C84.8318 40.6639 84.4922 42.3243 84.2038 43.0308C83.9153 43.7197 83.5525 44.3379 83.1152 44.8855C83.7572 45.3801 84.3247 46.2367 84.8178 47.4555C85.311 48.6567 85.9157 50.9353 86.6321 54.2914L88.9209 64.916H84.9434L82.9198 54.8743C82.4639 52.6133 82.0406 50.8735 81.6498 49.6547C81.259 48.4359 80.7752 47.8618 80.1984 47.9325V64.916H76.9745V47.9325C76.4628 47.8971 76.0162 48.3741 75.6347 49.3632C75.2626 50.3347 74.8067 52.1717 74.267 54.8743L72.2294 64.916H68.252L70.5408 54.2914C71.2106 51.2179 71.7782 49.0276 72.2434 47.7205C72.7179 46.4134 73.3227 45.4684 74.0577 44.8855C73.4901 44.1083 73.0808 43.3399 72.8296 42.5804C72.5876 41.8208 72.2713 40.1781 71.8805 37.6522C71.4991 35.1263 71.1223 33.4659 70.7501 32.6711C70.3872 31.8585 69.615 31.5053 68.4334 31.6113V25.7823C70.4058 25.7469 71.741 26.3387 72.4388 27.5575C73.1459 28.7586 73.7832 31.0813 74.3508 34.5258C74.9183 37.9702 75.3463 40.1516 75.6347 41.0701C75.9232 41.9886 76.3697 42.5009 76.9745 42.6069V26.0737Z" fill="#001AFF"/>
<path d="M68.2529 64.9161H64.5685L63.1031 56.0931H56.4042L55.0225 64.9161H51.4219L57.9533 26.0737H61.54L68.2529 64.9161ZM62.0145 49.5487L59.7118 35.1352L57.437 49.5487H62.0145Z" fill="#001AFF"/>
<path d="M41.9277 64.9161V26.0737H47.3706C49.3989 26.0737 50.7247 26.2592 51.3481 26.6301C52.3436 27.2307 53.1624 28.5113 53.8044 30.472C54.4557 32.4326 54.7813 34.9585 54.7813 38.0497C54.7813 40.8582 54.5022 43.2163 53.9439 45.124C53.3857 47.014 52.6879 48.3476 51.8505 49.1248C51.0132 49.8843 49.571 50.2641 47.5241 50.2641H45.3051V64.9161H41.9277ZM45.3051 32.6446V43.6667H47.1752C48.4313 43.6667 49.2826 43.4989 49.7292 43.1633C50.1851 42.8277 50.5573 42.2271 50.8457 41.3616C51.1341 40.4784 51.2783 39.4009 51.2783 38.1292C51.2783 36.8397 51.1295 35.7534 50.8317 34.8702C50.534 33.987 50.1665 33.3953 49.7292 33.095C49.2919 32.7947 48.3661 32.6446 46.9519 32.6446H45.3051Z" fill="#001AFF"/>
<path d="M41.9268 64.9161H38.2423L36.777 56.0931H30.078L28.6964 64.9161H25.0957L31.6272 26.0737H35.2139L41.9268 64.9161ZM35.6884 49.5487L33.3856 35.1352L31.1108 49.5487H35.6884Z" fill="#001AFF"/>
<path d="M18.166 64.9165V26.3921H29.9729V32.963H21.5434V64.9165H18.166Z" fill="#001AFF"/>
</svg>
