<svg width="459" height="190" viewBox="0 0 459 190" fill="none" xmlns="http://www.w3.org/2000/svg">
<rect y="-1.48145" width="458.697" height="191.286" fill="black"/>
<path d="M55.4629 99.748L50.4629 93.0719H48.6731V99.748H46.9118V85.2026H48.6731V91.5094H49.4402L55.264 85.2026H57.3663L51.4856 91.5946L57.5652 99.748H55.4629ZM63.2452 99.9753C62.2604 99.9753 61.3962 99.7409 60.6529 99.2722C59.9142 98.8034 59.3366 98.1477 58.9199 97.3049C58.508 96.4621 58.302 95.4772 58.302 94.3503C58.302 93.214 58.508 92.222 58.9199 91.3745C59.3366 90.5269 59.9142 89.8688 60.6529 89.4C61.3962 88.9313 62.2604 88.6969 63.2452 88.6969C64.2301 88.6969 65.0918 88.9313 65.8304 89.4C66.5738 89.8688 67.1515 90.5269 67.5634 91.3745C67.9801 92.222 68.1884 93.214 68.1884 94.3503C68.1884 95.4772 67.9801 96.4621 67.5634 97.3049C67.1515 98.1477 66.5738 98.8034 65.8304 99.2722C65.0918 99.7409 64.2301 99.9753 63.2452 99.9753ZM63.2452 98.4696C63.9933 98.4696 64.6088 98.2779 65.0918 97.8944C65.5748 97.5108 65.9322 97.0066 66.1642 96.3816C66.3962 95.7566 66.5123 95.0795 66.5123 94.3503C66.5123 93.6212 66.3962 92.9417 66.1642 92.312C65.9322 91.6822 65.5748 91.1732 65.0918 90.785C64.6088 90.3967 63.9933 90.2026 63.2452 90.2026C62.4971 90.2026 61.8816 90.3967 61.3986 90.785C60.9157 91.1732 60.5582 91.6822 60.3262 92.312C60.0942 92.9417 59.9782 93.6212 59.9782 94.3503C59.9782 95.0795 60.0942 95.7566 60.3262 96.3816C60.5582 97.0066 60.9157 97.5108 61.3986 97.8944C61.8816 98.2779 62.4971 98.4696 63.2452 98.4696ZM75.1788 99.9753C74.1561 99.9753 73.2754 99.7338 72.5368 99.2509C71.7981 98.7679 71.2299 98.1027 70.8322 97.2551C70.4345 96.4076 70.2356 95.4393 70.2356 94.3503C70.2356 93.2424 70.4392 92.2646 70.8464 91.4171C71.2583 90.5648 71.8313 89.8996 72.5652 89.4213C73.3038 88.9384 74.1655 88.6969 75.1504 88.6969C75.9174 88.6969 76.6087 88.839 77.2243 89.123C77.8398 89.4071 78.344 89.8049 78.737 90.3162C79.13 90.8276 79.3739 91.4242 79.4686 92.106H77.7924C77.6646 91.6088 77.3805 91.1685 76.9402 90.785C76.5046 90.3967 75.9174 90.2026 75.1788 90.2026C74.5254 90.2026 73.9525 90.373 73.46 90.714C72.9724 91.0501 72.5912 91.526 72.3166 92.1415C72.0467 92.7523 71.9118 93.4696 71.9118 94.2935C71.9118 95.1363 72.0443 95.8702 72.3095 96.4952C72.5794 97.1202 72.9582 97.6055 73.4458 97.9512C73.9383 98.2968 74.5159 98.4696 75.1788 98.4696C75.6144 98.4696 76.0098 98.3939 76.3649 98.2424C76.72 98.0908 77.0207 97.873 77.2669 97.589C77.5131 97.3049 77.6883 96.964 77.7924 96.5662H79.4686C79.3739 97.2102 79.1395 97.7902 78.7654 98.3063C78.3961 98.8176 77.9061 99.2248 77.2953 99.5279C76.6892 99.8262 75.9837 99.9753 75.1788 99.9753ZM87.8848 97.4753L91.6916 88.839H93.2825L88.5666 99.748H87.2029L82.5723 88.839H84.1348L87.8848 97.4753ZM83.595 88.839V99.748H81.9189V88.839H83.595ZM92.1745 99.748V88.839H93.8507V99.748H92.1745ZM98.595 97.2765L103.851 88.839H105.782V99.748H104.106V91.3105L98.8791 99.748H96.9189V88.839H98.595V97.2765ZM117.262 88.839V99.748H115.585V88.839H117.262ZM116.608 94.0378V95.6003C116.229 95.7424 115.853 95.8678 115.479 95.9767C115.105 96.0809 114.712 96.1638 114.3 96.2253C113.888 96.2821 113.436 96.3105 112.943 96.3105C111.708 96.3105 110.716 95.9767 109.968 95.3091C109.224 94.6415 108.852 93.6401 108.852 92.3049V88.8105H110.529V92.3049C110.529 92.8636 110.635 93.3229 110.848 93.6827C111.061 94.0426 111.35 94.3101 111.715 94.4853C112.079 94.6605 112.489 94.748 112.943 94.748C113.654 94.748 114.295 94.6841 114.868 94.5563C115.446 94.4237 116.026 94.2509 116.608 94.0378ZM124.911 99.9753C123.86 99.9753 122.953 99.7433 122.191 99.2793C121.433 98.8105 120.848 98.1571 120.436 97.3191C120.029 96.4763 119.825 95.4962 119.825 94.3787C119.825 93.2613 120.029 92.2765 120.436 91.4242C120.848 90.5672 121.421 89.8996 122.155 89.4213C122.894 88.9384 123.755 88.6969 124.74 88.6969C125.308 88.6969 125.869 88.7916 126.423 88.981C126.977 89.1704 127.482 89.4782 127.936 89.9043C128.391 90.3257 128.753 90.8844 129.023 91.5804C129.293 92.2765 129.428 93.1335 129.428 94.1515V94.8617H121.019V93.4128H127.723C127.723 92.7973 127.6 92.248 127.354 91.7651C127.112 91.2821 126.767 90.901 126.317 90.6216C125.872 90.3423 125.346 90.2026 124.74 90.2026C124.073 90.2026 123.495 90.3683 123.007 90.6998C122.524 91.0265 122.153 91.4526 121.892 91.9782C121.632 92.5037 121.502 93.0672 121.502 93.6685V94.6344C121.502 95.4583 121.644 96.1567 121.928 96.7296C122.217 97.2978 122.617 97.731 123.128 98.0293C123.639 98.3229 124.234 98.4696 124.911 98.4696C125.351 98.4696 125.749 98.4081 126.104 98.285C126.464 98.1571 126.774 97.9677 127.034 97.7168C127.295 97.4611 127.496 97.1439 127.638 96.7651L129.257 97.2196C129.087 97.7689 128.8 98.2518 128.398 98.6685C127.995 99.0804 127.498 99.4024 126.906 99.6344C126.315 99.8617 125.649 99.9753 124.911 99.9753ZM136.409 99.9753C135.387 99.9753 134.506 99.7338 133.767 99.2509C133.029 98.7679 132.46 98.1027 132.063 97.2551C131.665 96.4076 131.466 95.4393 131.466 94.3503C131.466 93.2424 131.67 92.2646 132.077 91.4171C132.489 90.5648 133.062 89.8996 133.796 89.4213C134.534 88.9384 135.396 88.6969 136.381 88.6969C137.148 88.6969 137.839 88.839 138.455 89.123C139.07 89.4071 139.575 89.8049 139.968 90.3162C140.36 90.8276 140.604 91.4242 140.699 92.106H139.023C138.895 91.6088 138.611 91.1685 138.171 90.785C137.735 90.3967 137.148 90.2026 136.409 90.2026C135.756 90.2026 135.183 90.373 134.691 90.714C134.203 91.0501 133.822 91.526 133.547 92.1415C133.277 92.7523 133.142 93.4696 133.142 94.2935C133.142 95.1363 133.275 95.8702 133.54 96.4952C133.81 97.1202 134.189 97.6055 134.676 97.9512C135.169 98.2968 135.746 98.4696 136.409 98.4696C136.845 98.4696 137.24 98.3939 137.595 98.2424C137.95 98.0908 138.251 97.873 138.497 97.589C138.744 97.3049 138.919 96.964 139.023 96.5662H140.699C140.604 97.2102 140.37 97.7902 139.996 98.3063C139.627 98.8176 139.137 99.2248 138.526 99.5279C137.92 99.8262 137.214 99.9753 136.409 99.9753ZM143.149 99.748V88.839H144.825V93.5833H145.933L149.854 88.839H152.013L147.61 94.0946L152.07 99.748H149.911L146.331 95.1458H144.825V99.748H143.149ZM157.102 100.004C156.41 100.004 155.783 99.8735 155.22 99.6131C154.656 99.348 154.209 98.9668 153.877 98.4696C153.546 97.9677 153.38 97.3617 153.38 96.6515C153.38 96.0265 153.503 95.5198 153.749 95.1316C153.996 94.7386 154.325 94.4308 154.737 94.2083C155.149 93.9857 155.603 93.82 156.1 93.7111C156.602 93.5975 157.106 93.5075 157.613 93.4412C158.276 93.356 158.813 93.2921 159.225 93.2495C159.642 93.2021 159.945 93.124 160.134 93.0151C160.329 92.9062 160.426 92.7168 160.426 92.4469V92.3901C160.426 91.6893 160.234 91.1448 159.85 90.7566C159.472 90.3683 158.896 90.1742 158.124 90.1742C157.324 90.1742 156.697 90.3494 156.242 90.6998C155.788 91.0501 155.468 91.4242 155.284 91.8219L153.693 91.2537C153.977 90.5908 154.356 90.0748 154.829 89.7054C155.307 89.3314 155.828 89.071 156.392 88.9242C156.96 88.7727 157.518 88.6969 158.068 88.6969C158.418 88.6969 158.82 88.7395 159.275 88.8248C159.734 88.9052 160.177 89.0733 160.603 89.329C161.034 89.5847 161.392 89.9706 161.676 90.4867C161.96 91.0028 162.102 91.6941 162.102 92.5605V99.748H160.426V98.2708H160.34C160.227 98.5075 160.037 98.7608 159.772 99.0307C159.507 99.3006 159.154 99.5302 158.714 99.7196C158.274 99.909 157.736 100.004 157.102 100.004ZM157.357 98.498C158.02 98.498 158.579 98.3678 159.034 98.1074C159.493 97.847 159.838 97.5108 160.07 97.0989C160.307 96.687 160.426 96.2537 160.426 95.7992V94.2651C160.355 94.3503 160.198 94.4284 159.957 94.4995C159.72 94.5658 159.445 94.6249 159.133 94.677C158.825 94.7244 158.525 94.767 158.231 94.8049C157.942 94.838 157.708 94.8664 157.528 94.8901C157.092 94.9469 156.685 95.0392 156.306 95.1671C155.932 95.2902 155.629 95.4772 155.397 95.7282C155.17 95.9744 155.056 96.3105 155.056 96.7367C155.056 97.3191 155.272 97.7594 155.703 98.0577C156.138 98.3513 156.69 98.498 157.357 98.498ZM171.724 99.748V90.373H168.826C168.172 90.373 167.659 90.5246 167.285 90.8276C166.911 91.1306 166.724 91.5473 166.724 92.0776C166.724 92.5984 166.892 93.008 167.228 93.3063C167.569 93.6046 168.035 93.7537 168.627 93.7537H172.15V95.3162H168.627C167.888 95.3162 167.251 95.186 166.716 94.9256C166.181 94.6652 165.769 94.2935 165.481 93.8105C165.192 93.3229 165.047 92.7452 165.047 92.0776C165.047 91.4052 165.199 90.8276 165.502 90.3446C165.805 89.8617 166.238 89.49 166.802 89.2296C167.37 88.9692 168.045 88.839 168.826 88.839H173.314V99.748H171.724ZM164.451 99.748L167.547 94.3219H169.366L166.269 99.748H164.451ZM182.017 99.748V88.839H183.693V93.5833H184.801L188.721 88.839H190.88L186.477 94.0946L190.937 99.748H188.778L185.198 95.1458H183.693V99.748H182.017ZM196.741 99.9753C195.756 99.9753 194.892 99.7409 194.149 99.2722C193.41 98.8034 192.833 98.1477 192.416 97.3049C192.004 96.4621 191.798 95.4772 191.798 94.3503C191.798 93.214 192.004 92.222 192.416 91.3745C192.833 90.5269 193.41 89.8688 194.149 89.4C194.892 88.9313 195.756 88.6969 196.741 88.6969C197.726 88.6969 198.588 88.9313 199.327 89.4C200.07 89.8688 200.648 90.5269 201.059 91.3745C201.476 92.222 201.684 93.214 201.684 94.3503C201.684 95.4772 201.476 96.4621 201.059 97.3049C200.648 98.1477 200.07 98.8034 199.327 99.2722C198.588 99.7409 197.726 99.9753 196.741 99.9753ZM196.741 98.4696C197.489 98.4696 198.105 98.2779 198.588 97.8944C199.071 97.5108 199.428 97.0066 199.66 96.3816C199.892 95.7566 200.008 95.0795 200.008 94.3503C200.008 93.6212 199.892 92.9417 199.66 92.312C199.428 91.6822 199.071 91.1732 198.588 90.785C198.105 90.3967 197.489 90.2026 196.741 90.2026C195.993 90.2026 195.378 90.3967 194.895 90.785C194.412 91.1732 194.054 91.6822 193.822 92.312C193.59 92.9417 193.474 93.6212 193.474 94.3503C193.474 95.0795 193.59 95.7566 193.822 96.3816C194.054 97.0066 194.412 97.5108 194.895 97.8944C195.378 98.2779 195.993 98.4696 196.741 98.4696ZM210.209 97.4753L214.016 88.839H215.607L210.891 99.748H209.527L204.896 88.839H206.459L210.209 97.4753ZM205.919 88.839V99.748H204.243V88.839H205.919ZM214.499 99.748V88.839H216.175V99.748H214.499ZM219.243 99.748V88.839H227.823V99.748H226.146V90.4015H220.919V99.748H219.243ZM234.094 100.004C233.403 100.004 232.775 99.8735 232.212 99.6131C231.648 99.348 231.201 98.9668 230.869 98.4696C230.538 97.9677 230.372 97.3617 230.372 96.6515C230.372 96.0265 230.495 95.5198 230.742 95.1316C230.988 94.7386 231.317 94.4308 231.729 94.2083C232.141 93.9857 232.595 93.82 233.093 93.7111C233.594 93.5975 234.099 93.5075 234.605 93.4412C235.268 93.356 235.806 93.2921 236.218 93.2495C236.634 93.2021 236.937 93.124 237.127 93.0151C237.321 92.9062 237.418 92.7168 237.418 92.4469V92.3901C237.418 91.6893 237.226 91.1448 236.843 90.7566C236.464 90.3683 235.888 90.1742 235.117 90.1742C234.316 90.1742 233.689 90.3494 233.235 90.6998C232.78 91.0501 232.46 91.4242 232.276 91.8219L230.685 91.2537C230.969 90.5908 231.348 90.0748 231.821 89.7054C232.299 89.3314 232.82 89.071 233.384 88.9242C233.952 88.7727 234.511 88.6969 235.06 88.6969C235.41 88.6969 235.813 88.7395 236.267 88.8248C236.727 88.9052 237.169 89.0733 237.595 89.329C238.026 89.5847 238.384 89.9706 238.668 90.4867C238.952 91.0028 239.094 91.6941 239.094 92.5605V99.748H237.418V98.2708H237.333C237.219 98.5075 237.03 98.7608 236.764 99.0307C236.499 99.3006 236.146 99.5302 235.706 99.7196C235.266 99.909 234.728 100.004 234.094 100.004ZM234.35 98.498C235.012 98.498 235.571 98.3678 236.026 98.1074C236.485 97.847 236.831 97.5108 237.063 97.0989C237.299 96.687 237.418 96.2537 237.418 95.7992V94.2651C237.347 94.3503 237.191 94.4284 236.949 94.4995C236.712 94.5658 236.438 94.6249 236.125 94.677C235.817 94.7244 235.517 94.767 235.223 94.8049C234.934 94.838 234.7 94.8664 234.52 94.8901C234.084 94.9469 233.677 95.0392 233.298 95.1671C232.924 95.2902 232.621 95.4772 232.389 95.7282C232.162 95.9744 232.048 96.3105 232.048 96.7367C232.048 97.3191 232.264 97.7594 232.695 98.0577C233.13 98.3513 233.682 98.498 234.35 98.498ZM249.454 93.5265V95.089H243.432V93.5265H249.454ZM243.829 88.839V99.748H242.153V88.839H243.829ZM250.733 88.839V99.748H249.057V88.839H250.733ZM255.47 97.2765L260.726 88.839H262.657V99.748H260.981V91.3105L255.754 99.748H253.794V88.839H255.47V97.2765ZM272.29 99.748V90.373H269.392C268.739 90.373 268.225 90.5246 267.851 90.8276C267.477 91.1306 267.29 91.5473 267.29 92.0776C267.29 92.5984 267.458 93.008 267.794 93.3063C268.135 93.6046 268.602 93.7537 269.193 93.7537H272.716V95.3162H269.193C268.455 95.3162 267.818 95.186 267.283 94.9256C266.748 94.6652 266.336 94.2935 266.047 93.8105C265.758 93.3229 265.614 92.7452 265.614 92.0776C265.614 91.4052 265.765 90.8276 266.068 90.3446C266.371 89.8617 266.805 89.49 267.368 89.2296C267.936 88.9692 268.611 88.839 269.392 88.839H273.881V99.748H272.29ZM265.017 99.748L268.114 94.3219H269.932L266.835 99.748H265.017ZM282.583 99.748V88.839H291.162V99.748H289.486V90.4015H284.259V99.748H282.583ZM297.434 100.004C296.742 100.004 296.115 99.8735 295.552 99.6131C294.988 99.348 294.541 98.9668 294.209 98.4696C293.878 97.9677 293.712 97.3617 293.712 96.6515C293.712 96.0265 293.835 95.5198 294.081 95.1316C294.328 94.7386 294.657 94.4308 295.069 94.2083C295.481 93.9857 295.935 93.82 296.432 93.7111C296.934 93.5975 297.439 93.5075 297.945 93.4412C298.608 93.356 299.145 93.2921 299.557 93.2495C299.974 93.2021 300.277 93.124 300.466 93.0151C300.661 92.9062 300.758 92.7168 300.758 92.4469V92.3901C300.758 91.6893 300.566 91.1448 300.182 90.7566C299.804 90.3683 299.228 90.1742 298.456 90.1742C297.656 90.1742 297.029 90.3494 296.574 90.6998C296.12 91.0501 295.8 91.4242 295.616 91.8219L294.025 91.2537C294.309 90.5908 294.688 90.0748 295.161 89.7054C295.639 89.3314 296.16 89.071 296.724 88.9242C297.292 88.7727 297.85 88.6969 298.4 88.6969C298.75 88.6969 299.153 88.7395 299.607 88.8248C300.066 88.9052 300.509 89.0733 300.935 89.329C301.366 89.5847 301.724 89.9706 302.008 90.4867C302.292 91.0028 302.434 91.6941 302.434 92.5605V99.748H300.758V98.2708H300.672C300.559 98.5075 300.369 98.7608 300.104 99.0307C299.839 99.3006 299.486 99.5302 299.046 99.7196C298.606 99.909 298.068 100.004 297.434 100.004ZM297.689 98.498C298.352 98.498 298.911 98.3678 299.366 98.1074C299.825 97.847 300.171 97.5108 300.403 97.0989C300.639 96.687 300.758 96.2537 300.758 95.7992V94.2651C300.687 94.3503 300.53 94.4284 300.289 94.4995C300.052 94.5658 299.778 94.6249 299.465 94.677C299.157 94.7244 298.857 94.767 298.563 94.8049C298.274 94.838 298.04 94.8664 297.86 94.8901C297.424 94.9469 297.017 95.0392 296.638 95.1671C296.264 95.2902 295.961 95.4772 295.729 95.7282C295.502 95.9744 295.388 96.3105 295.388 96.7367C295.388 97.3191 295.604 97.7594 296.035 98.0577C296.47 98.3513 297.022 98.498 297.689 98.498ZM314.073 88.839V98.1855H315.607V103.271H313.931V99.748H305.493V88.839H307.169V98.1855H312.396V88.839H314.073ZM321.399 100.004C320.707 100.004 320.08 99.8735 319.517 99.6131C318.953 99.348 318.506 98.9668 318.174 98.4696C317.843 97.9677 317.677 97.3617 317.677 96.6515C317.677 96.0265 317.8 95.5198 318.046 95.1316C318.293 94.7386 318.622 94.4308 319.034 94.2083C319.445 93.9857 319.9 93.82 320.397 93.7111C320.899 93.5975 321.403 93.5075 321.91 93.4412C322.573 93.356 323.11 93.2921 323.522 93.2495C323.939 93.2021 324.242 93.124 324.431 93.0151C324.625 92.9062 324.722 92.7168 324.722 92.4469V92.3901C324.722 91.6893 324.531 91.1448 324.147 90.7566C323.768 90.3683 323.193 90.1742 322.421 90.1742C321.621 90.1742 320.994 90.3494 320.539 90.6998C320.085 91.0501 319.765 91.4242 319.58 91.8219L317.99 91.2537C318.274 90.5908 318.652 90.0748 319.126 89.7054C319.604 89.3314 320.125 89.071 320.688 88.9242C321.257 88.7727 321.815 88.6969 322.365 88.6969C322.715 88.6969 323.117 88.7395 323.572 88.8248C324.031 88.9052 324.474 89.0733 324.9 89.329C325.331 89.5847 325.688 89.9706 325.972 90.4867C326.257 91.0028 326.399 91.6941 326.399 92.5605V99.748H324.722V98.2708H324.637C324.524 98.5075 324.334 98.7608 324.069 99.0307C323.804 99.3006 323.451 99.5302 323.011 99.7196C322.57 99.909 322.033 100.004 321.399 100.004ZM321.654 98.498C322.317 98.498 322.876 98.3678 323.33 98.1074C323.79 97.847 324.135 97.5108 324.367 97.0989C324.604 96.687 324.722 96.2537 324.722 95.7992V94.2651C324.651 94.3503 324.495 94.4284 324.254 94.4995C324.017 94.5658 323.742 94.6249 323.43 94.677C323.122 94.7244 322.821 94.767 322.528 94.8049C322.239 94.838 322.005 94.8664 321.825 94.8901C321.389 94.9469 320.982 95.0392 320.603 95.1671C320.229 95.2902 319.926 95.4772 319.694 95.7282C319.467 95.9744 319.353 96.3105 319.353 96.7367C319.353 97.3191 319.569 97.7594 319.999 98.0577C320.435 98.3513 320.987 98.498 321.654 98.498ZM336.759 93.5265V95.089H330.736V93.5265H336.759ZM331.134 88.839V99.748H329.458V88.839H331.134ZM338.037 88.839V99.748H336.361V88.839H338.037ZM345.53 99.9753C344.546 99.9753 343.681 99.7409 342.938 99.2722C342.199 98.8034 341.622 98.1477 341.205 97.3049C340.793 96.4621 340.587 95.4772 340.587 94.3503C340.587 93.214 340.793 92.222 341.205 91.3745C341.622 90.5269 342.199 89.8688 342.938 89.4C343.681 88.9313 344.546 88.6969 345.53 88.6969C346.515 88.6969 347.377 88.9313 348.116 89.4C348.859 89.8688 349.437 90.5269 349.849 91.3745C350.265 92.222 350.474 93.214 350.474 94.3503C350.474 95.4772 350.265 96.4621 349.849 97.3049C349.437 98.1477 348.859 98.8034 348.116 99.2722C347.377 99.7409 346.515 99.9753 345.53 99.9753ZM345.53 98.4696C346.278 98.4696 346.894 98.2779 347.377 97.8944C347.86 97.5108 348.217 97.0066 348.449 96.3816C348.681 95.7566 348.797 95.0795 348.797 94.3503C348.797 93.6212 348.681 92.9417 348.449 92.312C348.217 91.6822 347.86 91.1732 347.377 90.785C346.894 90.3967 346.278 90.2026 345.53 90.2026C344.782 90.2026 344.167 90.3967 343.684 90.785C343.201 91.1732 342.843 91.6822 342.611 92.312C342.379 92.9417 342.263 93.6212 342.263 94.3503C342.263 95.0795 342.379 95.7566 342.611 96.3816C342.843 97.0066 343.201 97.5108 343.684 97.8944C344.167 98.2779 344.782 98.4696 345.53 98.4696ZM353.032 99.748V88.839H357.492C358.667 88.839 359.599 89.1041 360.291 89.6344C360.982 90.1647 361.328 90.8655 361.328 91.7367C361.328 92.3996 361.131 92.9133 360.738 93.2779C360.345 93.6377 359.841 93.8816 359.225 94.0094C359.628 94.0662 360.018 94.2083 360.397 94.4355C360.781 94.6628 361.098 94.9753 361.349 95.373C361.6 95.766 361.725 96.249 361.725 96.8219C361.725 97.3806 361.583 97.8801 361.299 98.3205C361.015 98.7608 360.608 99.1088 360.078 99.3645C359.547 99.6202 358.913 99.748 358.174 99.748H353.032ZM354.623 98.214H358.174C358.752 98.214 359.204 98.0766 359.531 97.802C359.857 97.5274 360.021 97.1533 360.021 96.6799C360.021 96.1164 359.857 95.6737 359.531 95.3517C359.204 95.025 358.752 94.8617 358.174 94.8617H354.623V98.214ZM354.623 93.4128H357.492C357.942 93.4128 358.328 93.3513 358.65 93.2282C358.972 93.1003 359.218 92.9204 359.389 92.6884C359.564 92.4516 359.651 92.1723 359.651 91.8503C359.651 91.391 359.46 91.0312 359.076 90.7708C358.693 90.5056 358.165 90.373 357.492 90.373H354.623V93.4128ZM51.1163 123.975C50.0936 123.975 49.2129 123.734 48.4743 123.251C47.7356 122.768 47.1674 122.103 46.7697 121.255C46.372 120.408 46.1731 119.439 46.1731 118.35C46.1731 117.242 46.3767 116.265 46.7839 115.417C47.1958 114.565 47.7688 113.9 48.5027 113.421C49.2413 112.938 50.103 112.697 51.0879 112.697C51.8549 112.697 52.5462 112.839 53.1618 113.123C53.7773 113.407 54.2815 113.805 54.6745 114.316C55.0675 114.828 55.3114 115.424 55.4061 116.106H53.7299C53.6021 115.609 53.318 115.169 52.8777 114.785C52.4421 114.397 51.8549 114.203 51.1163 114.203C50.4629 114.203 49.89 114.373 49.3975 114.714C48.9099 115.05 48.5287 115.526 48.2541 116.142C47.9842 116.752 47.8493 117.47 47.8493 118.294C47.8493 119.136 47.9818 119.87 48.247 120.495C48.5169 121.12 48.8957 121.606 49.3833 121.951C49.8758 122.297 50.4534 122.47 51.1163 122.47C51.5519 122.47 51.9473 122.394 52.3024 122.242C52.6575 122.091 52.9582 121.873 53.2044 121.589C53.4506 121.305 53.6258 120.964 53.7299 120.566H55.4061C55.3114 121.21 55.077 121.79 54.7029 122.306C54.3336 122.818 53.8436 123.225 53.2328 123.528C52.6267 123.826 51.9212 123.975 51.1163 123.975ZM63.4814 127.839V112.839H65.1007V114.572H65.2995C65.4226 114.383 65.5931 114.141 65.8109 113.847C66.0334 113.549 66.3507 113.284 66.7626 113.052C67.1793 112.815 67.7427 112.697 68.4529 112.697C69.3715 112.697 70.1812 112.927 70.8819 113.386C71.5827 113.845 72.1296 114.496 72.5226 115.339C72.9155 116.182 73.112 117.176 73.112 118.322C73.112 119.477 72.9155 120.479 72.5226 121.326C72.1296 122.169 71.585 122.822 70.889 123.286C70.193 123.746 69.3904 123.975 68.4814 123.975C67.7806 123.975 67.2195 123.859 66.7981 123.627C66.3767 123.391 66.0524 123.123 65.8251 122.825C65.5978 122.522 65.4226 122.271 65.2995 122.072H65.1575V127.839H63.4814ZM65.1291 118.294C65.1291 119.117 65.2498 119.844 65.4913 120.474C65.7328 121.099 66.0855 121.589 66.5495 121.944C67.0136 122.294 67.5817 122.47 68.2541 122.47C68.9548 122.47 69.5396 122.285 70.0083 121.916C70.4818 121.542 70.8369 121.04 71.0737 120.41C71.3152 119.776 71.4359 119.07 71.4359 118.294C71.4359 117.526 71.3175 116.835 71.0808 116.22C70.8488 115.599 70.496 115.109 70.0225 114.749C69.5538 114.385 68.9643 114.203 68.2541 114.203C67.5723 114.203 66.9993 114.375 66.5353 114.721C66.0713 115.062 65.7209 115.54 65.4842 116.156C65.2475 116.767 65.1291 117.479 65.1291 118.294ZM78.8791 124.004C78.1878 124.004 77.5604 123.874 76.997 123.613C76.4335 123.348 75.9861 122.967 75.6547 122.47C75.3232 121.968 75.1575 121.362 75.1575 120.651C75.1575 120.026 75.2806 119.52 75.5268 119.132C75.773 118.739 76.1021 118.431 76.514 118.208C76.926 117.986 77.3805 117.82 77.8777 117.711C78.3796 117.597 78.8838 117.508 79.3904 117.441C80.0533 117.356 80.5907 117.292 81.0027 117.249C81.4193 117.202 81.7224 117.124 81.9118 117.015C82.1059 116.906 82.2029 116.717 82.2029 116.447V116.39C82.2029 115.689 82.0112 115.145 81.6277 114.757C81.2489 114.368 80.6736 114.174 79.9018 114.174C79.1016 114.174 78.4743 114.349 78.0197 114.7C77.5652 115.05 77.2456 115.424 77.0609 115.822L75.47 115.254C75.7541 114.591 76.1329 114.075 76.6064 113.705C77.0846 113.331 77.6054 113.071 78.1689 112.924C78.737 112.773 79.2958 112.697 79.845 112.697C80.1954 112.697 80.5978 112.74 81.0524 112.825C81.5117 112.905 81.9544 113.073 82.3805 113.329C82.8114 113.585 83.1689 113.971 83.4529 114.487C83.737 115.003 83.8791 115.694 83.8791 116.561V123.748H82.2029V122.271H82.1177C82.0041 122.508 81.8147 122.761 81.5495 123.031C81.2844 123.301 80.9316 123.53 80.4913 123.72C80.051 123.909 79.5136 124.004 78.8791 124.004ZM79.1348 122.498C79.7976 122.498 80.3564 122.368 80.8109 122.107C81.2702 121.847 81.6158 121.511 81.8478 121.099C82.0846 120.687 82.2029 120.254 82.2029 119.799V118.265C82.1319 118.35 81.9757 118.428 81.7342 118.499C81.4975 118.566 81.2228 118.625 80.9103 118.677C80.6026 118.724 80.3019 118.767 80.0083 118.805C79.7195 118.838 79.4851 118.866 79.3052 118.89C78.8696 118.947 78.4624 119.039 78.0836 119.167C77.7096 119.29 77.4065 119.477 77.1745 119.728C76.9473 119.974 76.8336 120.311 76.8336 120.737C76.8336 121.319 77.0491 121.759 77.4799 122.058C77.9155 122.351 78.4672 122.498 79.1348 122.498ZM88.6145 121.276L93.8702 112.839H95.802V123.748H94.1259V115.311L88.8986 123.748H86.9384V112.839H88.6145V121.276ZM92.7623 109.203H94.3248C94.3248 109.97 94.0596 110.597 93.5293 111.085C92.999 111.572 92.2793 111.816 91.3702 111.816C90.4753 111.816 89.7627 111.572 89.2324 111.085C88.7069 110.597 88.4441 109.97 88.4441 109.203H90.0066C90.0066 109.572 90.1084 109.896 90.312 110.176C90.5203 110.455 90.873 110.595 91.3702 110.595C91.8674 110.595 92.2225 110.455 92.4355 110.176C92.6534 109.896 92.7623 109.572 92.7623 109.203ZM103.304 123.975C102.319 123.975 101.455 123.741 100.711 123.272C99.9728 122.803 99.3952 122.148 98.9785 121.305C98.5666 120.462 98.3606 119.477 98.3606 118.35C98.3606 117.214 98.5666 116.222 98.9785 115.374C99.3952 114.527 99.9728 113.869 100.711 113.4C101.455 112.931 102.319 112.697 103.304 112.697C104.289 112.697 105.15 112.931 105.889 113.4C106.632 113.869 107.21 114.527 107.622 115.374C108.039 116.222 108.247 117.214 108.247 118.35C108.247 119.477 108.039 120.462 107.622 121.305C107.21 122.148 106.632 122.803 105.889 123.272C105.15 123.741 104.289 123.975 103.304 123.975ZM103.304 122.47C104.052 122.47 104.667 122.278 105.15 121.894C105.633 121.511 105.991 121.007 106.223 120.382C106.455 119.757 106.571 119.079 106.571 118.35C106.571 117.621 106.455 116.942 106.223 116.312C105.991 115.682 105.633 115.173 105.15 114.785C104.667 114.397 104.052 114.203 103.304 114.203C102.556 114.203 101.94 114.397 101.457 114.785C100.974 115.173 100.617 115.682 100.385 116.312C100.153 116.942 100.037 117.621 100.037 118.35C100.037 119.079 100.153 119.757 100.385 120.382C100.617 121.007 100.974 121.511 101.457 121.894C101.94 122.278 102.556 122.47 103.304 122.47ZM118.107 117.526V119.089H112.084V117.526H118.107ZM112.482 112.839V123.748H110.806V112.839H112.482ZM119.385 112.839V123.748H117.709V112.839H119.385ZM125.656 124.004C124.965 124.004 124.338 123.874 123.774 123.613C123.211 123.348 122.763 122.967 122.432 122.47C122.101 121.968 121.935 121.362 121.935 120.651C121.935 120.026 122.058 119.52 122.304 119.132C122.55 118.739 122.879 118.431 123.291 118.208C123.703 117.986 124.158 117.82 124.655 117.711C125.157 117.597 125.661 117.508 126.168 117.441C126.831 117.356 127.368 117.292 127.78 117.249C128.197 117.202 128.5 117.124 128.689 117.015C128.883 116.906 128.98 116.717 128.98 116.447V116.39C128.98 115.689 128.789 115.145 128.405 114.757C128.026 114.368 127.451 114.174 126.679 114.174C125.879 114.174 125.252 114.349 124.797 114.7C124.343 115.05 124.023 115.424 123.838 115.822L122.247 115.254C122.531 114.591 122.91 114.075 123.384 113.705C123.862 113.331 124.383 113.071 124.946 112.924C125.514 112.773 126.073 112.697 126.622 112.697C126.973 112.697 127.375 112.74 127.83 112.825C128.289 112.905 128.732 113.073 129.158 113.329C129.589 113.585 129.946 113.971 130.23 114.487C130.514 115.003 130.656 115.694 130.656 116.561V123.748H128.98V122.271H128.895C128.781 122.508 128.592 122.761 128.327 123.031C128.062 123.301 127.709 123.53 127.269 123.72C126.828 123.909 126.291 124.004 125.656 124.004ZM125.912 122.498C126.575 122.498 127.134 122.368 127.588 122.107C128.048 121.847 128.393 121.511 128.625 121.099C128.862 120.687 128.98 120.254 128.98 119.799V118.265C128.909 118.35 128.753 118.428 128.512 118.499C128.275 118.566 128 118.625 127.688 118.677C127.38 118.724 127.079 118.767 126.786 118.805C126.497 118.838 126.262 118.866 126.083 118.89C125.647 118.947 125.24 119.039 124.861 119.167C124.487 119.29 124.184 119.477 123.952 119.728C123.725 119.974 123.611 120.311 123.611 120.737C123.611 121.319 123.826 121.759 124.257 122.058C124.693 122.351 125.244 122.498 125.912 122.498ZM143.773 123.975C142.75 123.975 141.869 123.734 141.131 123.251C140.392 122.768 139.824 122.103 139.426 121.255C139.028 120.408 138.829 119.439 138.829 118.35C138.829 117.242 139.033 116.265 139.44 115.417C139.852 114.565 140.425 113.9 141.159 113.421C141.898 112.938 142.759 112.697 143.744 112.697C144.511 112.697 145.202 112.839 145.818 113.123C146.434 113.407 146.938 113.805 147.331 114.316C147.724 114.828 147.968 115.424 148.062 116.106H146.386C146.258 115.609 145.974 115.169 145.534 114.785C145.098 114.397 144.511 114.203 143.773 114.203C143.119 114.203 142.546 114.373 142.054 114.714C141.566 115.05 141.185 115.526 140.91 116.142C140.64 116.752 140.506 117.47 140.506 118.294C140.506 119.136 140.638 119.87 140.903 120.495C141.173 121.12 141.552 121.606 142.04 121.951C142.532 122.297 143.11 122.47 143.773 122.47C144.208 122.47 144.604 122.394 144.959 122.242C145.314 122.091 145.614 121.873 145.861 121.589C146.107 121.305 146.282 120.964 146.386 120.566H148.062C147.968 121.21 147.733 121.79 147.359 122.306C146.99 122.818 146.5 123.225 145.889 123.528C145.283 123.826 144.577 123.975 143.773 123.975ZM160.569 123.975C159.547 123.975 158.666 123.734 157.927 123.251C157.189 122.768 156.621 122.103 156.223 121.255C155.825 120.408 155.626 119.439 155.626 118.35C155.626 117.242 155.83 116.265 156.237 115.417C156.649 114.565 157.222 113.9 157.956 113.421C158.694 112.938 159.556 112.697 160.541 112.697C161.308 112.697 161.999 112.839 162.615 113.123C163.23 113.407 163.735 113.805 164.128 114.316C164.521 114.828 164.765 115.424 164.859 116.106H163.183C163.055 115.609 162.771 115.169 162.331 114.785C161.895 114.397 161.308 114.203 160.569 114.203C159.916 114.203 159.343 114.373 158.851 114.714C158.363 115.05 157.982 115.526 157.707 116.142C157.437 116.752 157.302 117.47 157.302 118.294C157.302 119.136 157.435 119.87 157.7 120.495C157.97 121.12 158.349 121.606 158.836 121.951C159.329 122.297 159.907 122.47 160.569 122.47C161.005 122.47 161.4 122.394 161.756 122.242C162.111 122.091 162.411 121.873 162.657 121.589C162.904 121.305 163.079 120.964 163.183 120.566H164.859C164.765 121.21 164.53 121.79 164.156 122.306C163.787 122.818 163.297 123.225 162.686 123.528C162.08 123.826 161.374 123.975 160.569 123.975ZM168.389 127.839C168.105 127.839 167.852 127.815 167.629 127.768C167.407 127.725 167.253 127.683 167.167 127.64L167.594 126.163C168.001 126.267 168.361 126.305 168.673 126.276C168.986 126.248 169.263 126.108 169.504 125.857C169.75 125.611 169.975 125.211 170.179 124.657L170.491 123.805L166.457 112.839H168.275L171.287 121.532H171.4L174.412 112.839H176.23L171.599 125.339C171.391 125.902 171.133 126.369 170.825 126.738C170.517 127.112 170.16 127.389 169.753 127.569C169.35 127.749 168.896 127.839 168.389 127.839ZM184.408 121.475L188.215 112.839H189.806L185.09 123.748H183.726L179.096 112.839H180.658L184.408 121.475ZM180.118 112.839V123.748H178.442V112.839H180.118ZM188.698 123.748V112.839H190.374V123.748H188.698ZM196.653 124.004C195.961 124.004 195.334 123.874 194.77 123.613C194.207 123.348 193.76 122.967 193.428 122.47C193.097 121.968 192.931 121.362 192.931 120.651C192.931 120.026 193.054 119.52 193.3 119.132C193.546 118.739 193.876 118.431 194.287 118.208C194.699 117.986 195.154 117.82 195.651 117.711C196.153 117.597 196.657 117.508 197.164 117.441C197.827 117.356 198.364 117.292 198.776 117.249C199.193 117.202 199.496 117.124 199.685 117.015C199.879 116.906 199.976 116.717 199.976 116.447V116.39C199.976 115.689 199.785 115.145 199.401 114.757C199.022 114.368 198.447 114.174 197.675 114.174C196.875 114.174 196.248 114.349 195.793 114.7C195.339 115.05 195.019 115.424 194.834 115.822L193.243 115.254C193.528 114.591 193.906 114.075 194.38 113.705C194.858 113.331 195.379 113.071 195.942 112.924C196.51 112.773 197.069 112.697 197.618 112.697C197.969 112.697 198.371 112.74 198.826 112.825C199.285 112.905 199.728 113.073 200.154 113.329C200.585 113.585 200.942 113.971 201.226 114.487C201.51 115.003 201.653 115.694 201.653 116.561V123.748H199.976V122.271H199.891C199.778 122.508 199.588 122.761 199.323 123.031C199.058 123.301 198.705 123.53 198.265 123.72C197.824 123.909 197.287 124.004 196.653 124.004ZM196.908 122.498C197.571 122.498 198.13 122.368 198.584 122.107C199.044 121.847 199.389 121.511 199.621 121.099C199.858 120.687 199.976 120.254 199.976 119.799V118.265C199.905 118.35 199.749 118.428 199.508 118.499C199.271 118.566 198.996 118.625 198.684 118.677C198.376 118.724 198.075 118.767 197.782 118.805C197.493 118.838 197.259 118.866 197.079 118.89C196.643 118.947 196.236 119.039 195.857 119.167C195.483 119.29 195.18 119.477 194.948 119.728C194.721 119.974 194.607 120.311 194.607 120.737C194.607 121.319 194.823 121.759 195.253 122.058C195.689 122.351 196.241 122.498 196.908 122.498ZM209.144 123.975C208.121 123.975 207.24 123.734 206.502 123.251C205.763 122.768 205.195 122.103 204.797 121.255C204.399 120.408 204.2 119.439 204.2 118.35C204.2 117.242 204.404 116.265 204.811 115.417C205.223 114.565 205.796 113.9 206.53 113.421C207.269 112.938 208.13 112.697 209.115 112.697C209.882 112.697 210.574 112.839 211.189 113.123C211.805 113.407 212.309 113.805 212.702 114.316C213.095 114.828 213.339 115.424 213.433 116.106H211.757C211.629 115.609 211.345 115.169 210.905 114.785C210.469 114.397 209.882 114.203 209.144 114.203C208.49 114.203 207.917 114.373 207.425 114.714C206.937 115.05 206.556 115.526 206.281 116.142C206.012 116.752 205.877 117.47 205.877 118.294C205.877 119.136 206.009 119.87 206.274 120.495C206.544 121.12 206.923 121.606 207.411 121.951C207.903 122.297 208.481 122.47 209.144 122.47C209.579 122.47 209.975 122.394 210.33 122.242C210.685 122.091 210.985 121.873 211.232 121.589C211.478 121.305 211.653 120.964 211.757 120.566H213.433C213.339 121.21 213.104 121.79 212.73 122.306C212.361 122.818 211.871 123.225 211.26 123.528C210.654 123.826 209.949 123.975 209.144 123.975ZM215.884 112.839H217.56V122.186H221.679V112.839H223.355V122.186H227.475V112.839H229.151V123.748H215.884V112.839ZM236.786 123.975C235.735 123.975 234.828 123.743 234.066 123.279C233.308 122.811 232.723 122.157 232.311 121.319C231.904 120.476 231.7 119.496 231.7 118.379C231.7 117.261 231.904 116.276 232.311 115.424C232.723 114.567 233.296 113.9 234.03 113.421C234.769 112.938 235.63 112.697 236.615 112.697C237.183 112.697 237.744 112.792 238.298 112.981C238.852 113.17 239.357 113.478 239.811 113.904C240.266 114.326 240.628 114.884 240.898 115.58C241.168 116.276 241.303 117.133 241.303 118.151V118.862H232.894V117.413H239.598C239.598 116.797 239.475 116.248 239.229 115.765C238.987 115.282 238.642 114.901 238.192 114.622C237.747 114.342 237.221 114.203 236.615 114.203C235.948 114.203 235.37 114.368 234.882 114.7C234.399 115.026 234.028 115.453 233.767 115.978C233.507 116.504 233.377 117.067 233.377 117.669V118.634C233.377 119.458 233.519 120.157 233.803 120.73C234.092 121.298 234.492 121.731 235.003 122.029C235.514 122.323 236.109 122.47 236.786 122.47C237.226 122.47 237.624 122.408 237.979 122.285C238.339 122.157 238.649 121.968 238.909 121.717C239.17 121.461 239.371 121.144 239.513 120.765L241.132 121.22C240.962 121.769 240.675 122.252 240.273 122.669C239.87 123.08 239.373 123.402 238.781 123.634C238.19 123.862 237.524 123.975 236.786 123.975ZM242.688 126.873V122.186H243.597C243.819 121.954 244.011 121.703 244.172 121.433C244.333 121.163 244.473 120.843 244.591 120.474C244.714 120.1 244.818 119.645 244.904 119.11C244.989 118.57 245.065 117.919 245.131 117.157L245.5 112.839H252.432V122.186H254.108V126.873H252.432V123.748H244.364V126.873H242.688ZM245.5 122.186H250.756V114.401H247.063L246.779 117.157C246.66 118.298 246.513 119.295 246.338 120.147C246.163 120.999 245.884 121.679 245.5 122.186ZM256.333 112.839H258.009V122.186H262.128V112.839H263.805V122.186H267.924V112.839H269.6V123.748H256.333V112.839ZM274.337 121.276L279.593 112.839H281.525V123.748H279.849V115.311L274.621 123.748H272.661V112.839H274.337V121.276ZM290.561 121.475L294.367 112.839H295.958L291.242 123.748H289.879L285.248 112.839H286.811L290.561 121.475ZM286.271 112.839V123.748H284.595V112.839H286.271ZM294.85 123.748V112.839H296.526V123.748H294.85ZM301.271 121.276L306.526 112.839H308.458V123.748H306.782V115.311L301.555 123.748H299.595V112.839H301.271V121.276ZM46.6845 147.748V136.839H55.264V147.748H53.5879V138.401H48.3606V147.748H46.6845ZM62.7569 147.975C61.7721 147.975 60.908 147.741 60.1646 147.272C59.426 146.803 58.8483 146.148 58.4316 145.305C58.0197 144.462 57.8137 143.477 57.8137 142.35C57.8137 141.214 58.0197 140.222 58.4316 139.374C58.8483 138.527 59.426 137.869 60.1646 137.4C60.908 136.931 61.7721 136.697 62.7569 136.697C63.7418 136.697 64.6035 136.931 65.3422 137.4C66.0855 137.869 66.6632 138.527 67.0751 139.374C67.4918 140.222 67.7001 141.214 67.7001 142.35C67.7001 143.477 67.4918 144.462 67.0751 145.305C66.6632 146.148 66.0855 146.803 65.3422 147.272C64.6035 147.741 63.7418 147.975 62.7569 147.975ZM62.7569 146.47C63.505 146.47 64.1206 146.278 64.6035 145.894C65.0865 145.511 65.444 145.007 65.676 144.382C65.908 143.757 66.024 143.079 66.024 142.35C66.024 141.621 65.908 140.942 65.676 140.312C65.444 139.682 65.0865 139.173 64.6035 138.785C64.1206 138.397 63.505 138.203 62.7569 138.203C62.0088 138.203 61.3933 138.397 60.9103 138.785C60.4274 139.173 60.0699 139.682 59.8379 140.312C59.6059 140.942 59.4899 141.621 59.4899 142.35C59.4899 143.079 59.6059 143.757 59.8379 144.382C60.0699 145.007 60.4274 145.511 60.9103 145.894C61.3933 146.278 62.0088 146.47 62.7569 146.47ZM69.2928 147.748V146.186H69.6905C70.0172 146.186 70.2895 146.122 70.5073 145.994C70.7251 145.861 70.9003 145.632 71.0328 145.305C71.1702 144.973 71.2743 144.514 71.3453 143.927C71.4211 143.335 71.4756 142.582 71.5087 141.669L71.7076 136.839H78.9803V147.748H77.3042V138.401H73.2985L73.128 142.294C73.0901 143.188 73.0096 143.977 72.8865 144.659C72.7682 145.336 72.5859 145.904 72.3397 146.363C72.0982 146.822 71.7762 147.168 71.3738 147.4C70.9713 147.632 70.467 147.748 69.861 147.748H69.2928ZM86.6294 147.975C85.5783 147.975 84.6716 147.743 83.9093 147.279C83.1517 146.811 82.5669 146.157 82.155 145.319C81.7478 144.476 81.5442 143.496 81.5442 142.379C81.5442 141.261 81.7478 140.276 82.155 139.424C82.5669 138.567 83.1399 137.9 83.8738 137.421C84.6124 136.938 85.4741 136.697 86.459 136.697C87.0272 136.697 87.5882 136.792 88.1422 136.981C88.6962 137.17 89.2005 137.478 89.655 137.904C90.1096 138.326 90.4718 138.884 90.7417 139.58C91.0115 140.276 91.1465 141.133 91.1465 142.151V142.862H82.7374V141.413H89.4419C89.4419 140.797 89.3188 140.248 89.0726 139.765C88.8311 139.282 88.4855 138.901 88.0357 138.622C87.5906 138.342 87.065 138.203 86.459 138.203C85.7914 138.203 85.2137 138.368 84.726 138.7C84.2431 139.026 83.8714 139.453 83.611 139.978C83.3506 140.504 83.2203 141.067 83.2203 141.669V142.634C83.2203 143.458 83.3624 144.157 83.6465 144.73C83.9353 145.298 84.3354 145.731 84.8468 146.029C85.3581 146.323 85.9524 146.47 86.6294 146.47C87.0698 146.47 87.4675 146.408 87.8226 146.285C88.1825 146.157 88.4926 145.968 88.753 145.717C89.0134 145.461 89.2147 145.144 89.3567 144.765L90.976 145.22C90.8056 145.769 90.5191 146.252 90.1167 146.669C89.7142 147.08 89.217 147.402 88.6252 147.634C88.0333 147.862 87.3681 147.975 86.6294 147.975ZM92.6806 138.401V136.839H101.544V138.401H97.9647V147.748H96.2885V138.401H92.6806ZM106.633 148.004C105.942 148.004 105.314 147.874 104.751 147.613C104.187 147.348 103.74 146.967 103.409 146.47C103.077 145.968 102.911 145.362 102.911 144.651C102.911 144.026 103.035 143.52 103.281 143.132C103.527 142.739 103.856 142.431 104.268 142.208C104.68 141.986 105.134 141.82 105.632 141.711C106.133 141.597 106.638 141.508 107.144 141.441C107.807 141.356 108.345 141.292 108.757 141.249C109.173 141.202 109.476 141.124 109.666 141.015C109.86 140.906 109.957 140.717 109.957 140.447V140.39C109.957 139.689 109.765 139.145 109.382 138.757C109.003 138.368 108.427 138.174 107.656 138.174C106.856 138.174 106.228 138.349 105.774 138.7C105.319 139.05 104.999 139.424 104.815 139.822L103.224 139.254C103.508 138.591 103.887 138.075 104.36 137.705C104.838 137.331 105.359 137.071 105.923 136.924C106.491 136.773 107.05 136.697 107.599 136.697C107.949 136.697 108.352 136.74 108.806 136.825C109.266 136.905 109.708 137.073 110.134 137.329C110.565 137.585 110.923 137.971 111.207 138.487C111.491 139.003 111.633 139.694 111.633 140.561V147.748H109.957V146.271H109.872C109.758 146.508 109.569 146.761 109.303 147.031C109.038 147.301 108.686 147.53 108.245 147.72C107.805 147.909 107.267 148.004 106.633 148.004ZM106.889 146.498C107.552 146.498 108.11 146.368 108.565 146.107C109.024 145.847 109.37 145.511 109.602 145.099C109.838 144.687 109.957 144.254 109.957 143.799V142.265C109.886 142.35 109.73 142.428 109.488 142.499C109.251 142.566 108.977 142.625 108.664 142.677C108.356 142.724 108.056 142.767 107.762 142.805C107.473 142.838 107.239 142.866 107.059 142.89C106.624 142.947 106.216 143.039 105.838 143.167C105.463 143.29 105.16 143.477 104.928 143.728C104.701 143.974 104.588 144.311 104.588 144.737C104.588 145.319 104.803 145.759 105.234 146.058C105.669 146.351 106.221 146.498 106.889 146.498ZM120.658 145.475L124.465 136.839H126.056L121.34 147.748H119.976L115.346 136.839H116.908L120.658 145.475ZM116.368 136.839V147.748H114.692V136.839H116.368ZM124.948 147.748V136.839H126.624V147.748H124.948ZM131.368 145.276L136.624 136.839H138.556V147.748H136.88V139.311L131.653 147.748H129.692V136.839H131.368V145.276ZM154.552 141.526V143.089H148.529V141.526H154.552ZM148.927 136.839V147.748H147.251V136.839H148.927ZM155.83 136.839V147.748H154.154V136.839H155.83ZM162.102 148.004C161.41 148.004 160.783 147.874 160.22 147.613C159.656 147.348 159.209 146.967 158.877 146.47C158.546 145.968 158.38 145.362 158.38 144.651C158.38 144.026 158.503 143.52 158.749 143.132C158.996 142.739 159.325 142.431 159.737 142.208C160.149 141.986 160.603 141.82 161.1 141.711C161.602 141.597 162.106 141.508 162.613 141.441C163.276 141.356 163.813 141.292 164.225 141.249C164.642 141.202 164.945 141.124 165.134 141.015C165.329 140.906 165.426 140.717 165.426 140.447V140.39C165.426 139.689 165.234 139.145 164.85 138.757C164.472 138.368 163.896 138.174 163.124 138.174C162.324 138.174 161.697 138.349 161.242 138.7C160.788 139.05 160.468 139.424 160.284 139.822L158.693 139.254C158.977 138.591 159.356 138.075 159.829 137.705C160.307 137.331 160.828 137.071 161.392 136.924C161.96 136.773 162.518 136.697 163.068 136.697C163.418 136.697 163.82 136.74 164.275 136.825C164.734 136.905 165.177 137.073 165.603 137.329C166.034 137.585 166.392 137.971 166.676 138.487C166.96 139.003 167.102 139.694 167.102 140.561V147.748H165.426V146.271H165.34C165.227 146.508 165.037 146.761 164.772 147.031C164.507 147.301 164.154 147.53 163.714 147.72C163.274 147.909 162.736 148.004 162.102 148.004ZM162.357 146.498C163.02 146.498 163.579 146.368 164.034 146.107C164.493 145.847 164.838 145.511 165.07 145.099C165.307 144.687 165.426 144.254 165.426 143.799V142.265C165.355 142.35 165.198 142.428 164.957 142.499C164.72 142.566 164.445 142.625 164.133 142.677C163.825 142.724 163.525 142.767 163.231 142.805C162.942 142.838 162.708 142.866 162.528 142.89C162.092 142.947 161.685 143.039 161.306 143.167C160.932 143.29 160.629 143.477 160.397 143.728C160.17 143.974 160.056 144.311 160.056 144.737C160.056 145.319 160.272 145.759 160.703 146.058C161.138 146.351 161.69 146.498 162.357 146.498ZM174.621 150.873V146.186H175.53C175.753 145.954 175.945 145.703 176.106 145.433C176.267 145.163 176.406 144.843 176.525 144.474C176.648 144.1 176.752 143.645 176.837 143.11C176.922 142.57 176.998 141.919 177.064 141.157L177.434 136.839H184.366V146.186H186.042V150.873H184.366V147.748H176.297V150.873H174.621ZM177.434 146.186H182.689V138.401H178.996L178.712 141.157C178.594 142.298 178.447 143.295 178.272 144.147C178.097 144.999 177.817 145.679 177.434 146.186ZM192.84 147.975C191.789 147.975 190.883 147.743 190.12 147.279C189.363 146.811 188.778 146.157 188.366 145.319C187.959 144.476 187.755 143.496 187.755 142.379C187.755 141.261 187.959 140.276 188.366 139.424C188.778 138.567 189.351 137.9 190.085 137.421C190.823 136.938 191.685 136.697 192.67 136.697C193.238 136.697 193.799 136.792 194.353 136.981C194.907 137.17 195.411 137.478 195.866 137.904C196.32 138.326 196.683 138.884 196.953 139.58C197.222 140.276 197.357 141.133 197.357 142.151V142.862H188.948V141.413H195.653C195.653 140.797 195.53 140.248 195.284 139.765C195.042 139.282 194.696 138.901 194.247 138.622C193.802 138.342 193.276 138.203 192.67 138.203C192.002 138.203 191.425 138.368 190.937 138.7C190.454 139.026 190.082 139.453 189.822 139.978C189.561 140.504 189.431 141.067 189.431 141.669V142.634C189.431 143.458 189.573 144.157 189.857 144.73C190.146 145.298 190.546 145.731 191.058 146.029C191.569 146.323 192.163 146.47 192.84 146.47C193.281 146.47 193.678 146.408 194.034 146.285C194.393 146.157 194.704 145.968 194.964 145.717C195.224 145.461 195.426 145.144 195.568 144.765L197.187 145.22C197.017 145.769 196.73 146.252 196.328 146.669C195.925 147.08 195.428 147.402 194.836 147.634C194.244 147.862 193.579 147.975 192.84 147.975ZM199.907 147.748V136.839H204.367C205.542 136.839 206.474 137.104 207.166 137.634C207.857 138.165 208.203 138.865 208.203 139.737C208.203 140.4 208.006 140.913 207.613 141.278C207.22 141.638 206.716 141.882 206.1 142.009C206.503 142.066 206.893 142.208 207.272 142.436C207.656 142.663 207.973 142.975 208.224 143.373C208.475 143.766 208.6 144.249 208.6 144.822C208.6 145.381 208.458 145.88 208.174 146.32C207.89 146.761 207.483 147.109 206.953 147.365C206.422 147.62 205.788 147.748 205.049 147.748H199.907ZM201.498 146.214H205.049C205.627 146.214 206.079 146.077 206.406 145.802C206.732 145.527 206.896 145.153 206.896 144.68C206.896 144.116 206.732 143.674 206.406 143.352C206.079 143.025 205.627 142.862 205.049 142.862H201.498V146.214ZM201.498 141.413H204.367C204.817 141.413 205.203 141.351 205.525 141.228C205.847 141.1 206.093 140.92 206.264 140.688C206.439 140.452 206.526 140.172 206.526 139.85C206.526 139.391 206.335 139.031 205.951 138.771C205.568 138.506 205.04 138.373 204.367 138.373H201.498V141.413ZM217.7 147.748V138.373H214.802C214.149 138.373 213.635 138.525 213.261 138.828C212.887 139.131 212.7 139.547 212.7 140.078C212.7 140.598 212.868 141.008 213.204 141.306C213.545 141.605 214.012 141.754 214.604 141.754H218.126V143.316H214.604C213.865 143.316 213.228 143.186 212.693 142.926C212.158 142.665 211.746 142.294 211.457 141.811C211.168 141.323 211.024 140.745 211.024 140.078C211.024 139.405 211.175 138.828 211.479 138.345C211.782 137.862 212.215 137.49 212.778 137.23C213.346 136.969 214.021 136.839 214.802 136.839H219.291V147.748H217.7ZM210.427 147.748L213.524 142.322H215.342L212.246 147.748H210.427ZM220.884 138.401V136.839H229.747V138.401H226.168V147.748H224.492V138.401H220.884ZM232.192 147.748V136.839H233.868V141.583H234.976L238.897 136.839H241.056L236.653 142.095L241.113 147.748H238.954L235.374 143.146H233.868V147.748H232.192ZM246.145 148.004C245.453 148.004 244.826 147.874 244.263 147.613C243.699 147.348 243.252 146.967 242.92 146.47C242.589 145.968 242.423 145.362 242.423 144.651C242.423 144.026 242.546 143.52 242.792 143.132C243.039 142.739 243.368 142.431 243.78 142.208C244.192 141.986 244.646 141.82 245.143 141.711C245.645 141.597 246.149 141.508 246.656 141.441C247.319 141.356 247.856 141.292 248.268 141.249C248.685 141.202 248.988 141.124 249.177 141.015C249.372 140.906 249.469 140.717 249.469 140.447V140.39C249.469 139.689 249.277 139.145 248.893 138.757C248.515 138.368 247.939 138.174 247.167 138.174C246.367 138.174 245.74 138.349 245.285 138.7C244.831 139.05 244.511 139.424 244.327 139.822L242.736 139.254C243.02 138.591 243.398 138.075 243.872 137.705C244.35 137.331 244.871 137.071 245.434 136.924C246.003 136.773 246.561 136.697 247.111 136.697C247.461 136.697 247.863 136.74 248.318 136.825C248.777 136.905 249.22 137.073 249.646 137.329C250.077 137.585 250.434 137.971 250.719 138.487C251.003 139.003 251.145 139.694 251.145 140.561V147.748H249.469V146.271H249.383C249.27 146.508 249.08 146.761 248.815 147.031C248.55 147.301 248.197 147.53 247.757 147.72C247.317 147.909 246.779 148.004 246.145 148.004ZM246.4 146.498C247.063 146.498 247.622 146.368 248.077 146.107C248.536 145.847 248.881 145.511 249.113 145.099C249.35 144.687 249.469 144.254 249.469 143.799V142.265C249.398 142.35 249.241 142.428 249 142.499C248.763 142.566 248.488 142.625 248.176 142.677C247.868 142.724 247.568 142.767 247.274 142.805C246.985 142.838 246.751 142.866 246.571 142.89C246.135 142.947 245.728 143.039 245.349 143.167C244.975 143.29 244.672 143.477 244.44 143.728C244.213 143.974 244.099 144.311 244.099 144.737C244.099 145.319 244.315 145.759 244.746 146.058C245.181 146.351 245.733 146.498 246.4 146.498ZM255.454 136.839L258.068 141.299L260.681 136.839H262.613L259.09 142.294L262.613 147.748H260.681L258.068 143.515L255.454 147.748H253.522L256.988 142.294L253.522 136.839H255.454Z" fill="white"/>
<path d="M46.178 56.1932V52.7848H45.3941V42.5596H46.178V39.1511H47.78V35.7427H55.7215V39.1511H49.3819V42.5596H48.5639V45.968H47.78V49.3764H48.5639V52.7848H49.3819V56.1932H54.9376V52.7848H57.3235V56.1932H55.7215V59.6016H47.78V56.1932H46.178ZM55.7215 42.5596V39.1511H57.3235V42.5596H55.7215ZM63.6945 35.7427H67.6483V39.1511H70.0342V42.5596H71.6361V52.7848H70.0342V56.1932H67.6483V59.6016H63.6945V56.1932H61.3086V52.7848H59.7067V42.5596H61.3086V39.1511H63.6945V35.7427ZM62.0926 42.5596V52.7848H64.4785V56.1932H66.8643V52.7848H69.2502V42.5596H66.8643V39.1511H64.4785V42.5596H62.0926ZM76.4052 39.1511V35.7427H83.5629V39.1511H84.3468V42.5596H82.7789V39.1511H76.4052ZM77.1891 39.1511V42.5596H75.6213V39.1511H77.1891ZM74.0193 45.968V42.5596H75.6213V45.968H74.0193ZM84.3468 45.968V49.3764H75.6213V45.968H84.3468ZM84.3468 52.7848V49.3764H85.9487V52.7848H84.3468ZM77.1891 52.7848V56.1932H82.7789V52.7848H84.3468V56.1932H83.5629V59.6016H76.4052V56.1932H75.6213V52.7848H77.1891ZM97.8755 35.7427H100.261V59.6016H97.8755V45.968H96.2735V49.3764H94.7057V45.968H95.4896V42.5596H97.0915V39.1511H97.8755V35.7427ZM88.332 35.7427H90.7178V39.1511H91.5018V42.5596H93.1037V45.968H93.8877V49.3764H92.3198V45.968H90.7178V59.6016H88.332V35.7427ZM93.8877 52.7848V49.3764H94.7057V52.7848H93.8877ZM106.632 35.7427H110.586V39.1511H112.972V42.5596H114.574V52.7848H112.972V56.1932H110.586V59.6016H106.632V56.1932H104.247V52.7848H102.645V42.5596H104.247V39.1511H106.632V35.7427ZM105.03 42.5596V52.7848H107.416V56.1932H109.802V52.7848H112.188V42.5596H109.802V39.1511H107.416V42.5596H105.03ZM117.741 56.1932V52.7848H116.957V42.5596H117.741V39.1511H119.343V35.7427H127.285V39.1511H120.945V42.5596H120.127V45.968H119.343V49.3764H120.127V52.7848H120.945V56.1932H126.501V52.7848H128.887V56.1932H127.285V59.6016H119.343V56.1932H117.741ZM127.285 42.5596V39.1511H128.887V42.5596H127.285ZM140.029 45.968V39.1511H141.597V45.968H140.064V49.3764H136.826V52.7848H133.656V59.6016H131.27V35.7427H140.029V39.1511H133.656V45.968H140.029ZM141.597 52.7848V56.1932H136.86V52.7848H141.597ZM141.597 59.6016V56.1932H143.199V59.6016H141.597ZM145.582 59.6016V35.7427H157.512V39.1511H147.968V45.968H152.74V49.3764H147.968V56.1932H157.512V59.6016H145.582ZM159.895 52.7848V35.7427H162.281V56.1932H160.679V52.7848H159.895ZM166.269 59.6016V56.1932H163.883V45.968H165.451V49.3764H166.269V56.1932H168.655V52.7848H169.439V35.7427H171.824V52.7848H170.223V56.1932H169.439V59.6016H166.269ZM163.883 56.1932V59.6016H162.281V56.1932H163.883Z" fill="white"/>
</svg>
