<svg width="61" height="84" viewBox="0 0 61 84" fill="none" xmlns="http://www.w3.org/2000/svg">
<rect x="0.472656" y="0.248535" width="60" height="82.7918" fill="white"/>
<path d="M33.6821 28.5547C33.7742 28.7602 36.4914 28.9381 37.3761 26.5781C38.8298 22.7017 37.1829 17.0986 35.3198 13.6883C34.9579 13.0259 39.0705 13.5472 40.1608 13.3709C41.4473 13.1639 43.6094 11.2533 39.1319 9.80113C35.6188 8.6618 20.7402 5.31591 20.6022 13.331C20.5439 16.6754 20.5914 27.8003 24.678 28.8737C24.8022 28.9059 26.8968 25.1797 29.3855 25.2487C31.3253 25.3024 32.9216 26.8511 33.6806 28.5532L33.6821 28.5547Z" stroke="black" stroke-width="1.8867" stroke-miterlimit="10"/>
<path d="M30.4668 61.2764V74.8516" stroke="black" stroke-width="1.8716" stroke-miterlimit="10" stroke-linecap="round"/>
<path d="M49.4602 75.1558C49.6058 75.1558 49.7883 75.119 49.9738 74.9886C50.5841 74.5608 50.8249 73.4107 50.7068 71.4725C50.6547 70.6077 50.3235 69.9253 49.7239 69.4438C48.169 68.1926 45.2402 68.6526 43.8325 68.8734C43.8126 68.8765 43.7927 68.8795 43.7743 68.8826C43.5979 68.9102 43.4369 68.7829 43.4231 68.6066C43.3986 68.2984 43.3741 67.8889 43.3495 67.4657C43.1717 64.4817 42.799 58.2745 41.0816 52.7956C38.9256 45.9244 35.3697 42.439 30.5134 42.439V42.7518C30.6253 42.8699 30.6912 42.9389 30.8047 43.0569C35.2163 43.1965 38.4764 46.5316 40.4989 52.9796C42.1949 58.3864 42.5629 64.543 42.7408 67.5025C42.7745 68.0622 42.8006 68.5054 42.8282 68.8136C42.865 69.223 42.8941 69.5481 43.2085 69.565C43.3327 69.5711 43.532 69.542 43.9322 69.4791C45.1497 69.2874 48.0004 68.8397 49.3436 69.9207C49.8098 70.2949 50.0567 70.8147 50.0981 71.5093C50.2345 73.7711 49.8205 74.3385 49.635 74.478C49.5154 74.5685 49.4111 74.5378 49.3912 74.5317L49.3344 74.5071L49.2807 74.5102L35.0323 74.4259C34.8713 74.4259 34.7394 74.2986 34.7302 74.1376C34.4481 69.3779 33.1309 60.662 30.4873 60.662H30.4766L30.4796 61.0239L30.6943 61.3122C31.4349 61.5698 32.24 63.1798 32.8886 65.7284C33.5403 68.2922 34.0111 71.6627 34.1475 74.7417C34.1552 74.9058 34.2886 75.0331 34.4512 75.0346L49.1933 75.122C49.2179 75.122 49.2409 75.1251 49.2654 75.1312C49.3175 75.1435 49.3866 75.1542 49.4648 75.1542L49.4602 75.1558Z" fill="#2A4B9B" stroke="black" stroke-width="1.13202" stroke-miterlimit="10"/>
<path d="M36.7458 45.3531C36.9145 45.3653 37.0617 45.2365 37.0724 45.0678C37.8575 33.5657 35.7092 28.6374 33.7587 26.5305C32.8755 25.5767 31.8389 25.0063 30.8054 24.902C30.6275 24.8836 30.4742 25.0262 30.4727 25.2056V25.2087C30.4727 25.3666 30.5923 25.497 30.7487 25.5138C31.3559 25.5798 32.3143 25.8757 33.3079 26.9476C35.1772 28.9671 37.2304 33.7436 36.4606 45.0264C36.4499 45.1936 36.5756 45.3408 36.7428 45.3531H36.7458Z" fill="#2A4B9B" stroke="black" stroke-width="1.13202" stroke-miterlimit="10"/>
<path d="M40.8764 51.8838C40.9991 52.0233 41.2183 52.0249 41.3379 51.8823C42.6858 50.2691 45.9305 43.7 44.5964 37.1508C44.0229 34.337 42.7226 32.2577 40.7292 30.9712C38.9903 29.8487 37.1303 29.6202 36.0891 29.7368C35.9097 29.7567 35.7901 29.9315 35.8299 30.1063V30.1125C35.8652 30.2627 36.0048 30.3639 36.1581 30.3486C36.9233 30.2719 38.6591 30.3655 40.3964 31.4864C42.2457 32.6794 43.4556 34.6268 43.9953 37.2735C45.2773 43.562 42.097 50.0575 40.8733 51.4882C40.7752 51.6032 40.7783 51.7719 40.8779 51.8853L40.8764 51.8838Z" fill="#2A4B9B" stroke="black" stroke-width="1.13202" stroke-miterlimit="10"/>
<path d="M11.4847 75.1558C11.3391 75.1558 11.1566 75.119 10.971 74.9886C10.3607 74.5608 10.12 73.4107 10.2381 71.4725C10.2902 70.6077 10.6214 69.9253 11.221 69.4438C12.7759 68.1926 15.7047 68.6526 17.1123 68.8734C17.1323 68.8765 17.1522 68.8795 17.1706 68.8826C17.347 68.9102 17.508 68.7829 17.5218 68.6066C17.5463 68.2984 17.5708 67.8889 17.5954 67.4657C17.7732 64.4817 18.1459 58.2745 19.8633 52.7956C22.0193 45.9244 25.5752 42.439 30.4315 42.439V42.7518C30.3196 42.8699 30.2537 42.9389 30.1402 43.0569C25.7286 43.1965 22.4685 46.5316 20.446 52.9796C18.75 58.3864 18.382 64.543 18.2041 67.5025C18.1704 68.0622 18.1443 68.5054 18.1167 68.8136C18.0799 69.223 18.0508 69.5481 17.7364 69.565C17.6122 69.5711 17.4129 69.542 17.0127 69.4791C15.7951 69.2874 12.9445 68.8397 11.6013 69.9207C11.1351 70.2949 10.8882 70.8147 10.8468 71.5093C10.7104 73.7711 11.1244 74.3385 11.3099 74.478C11.4295 74.5685 11.5338 74.5378 11.5537 74.5317L11.6105 74.5071L11.6641 74.5102L25.9126 74.4259C26.0736 74.4259 26.2055 74.2986 26.2147 74.1376C26.4968 69.3779 27.814 60.662 30.4576 60.662H30.4683L30.4653 61.0239L30.2506 61.3122C29.51 61.5698 28.7049 63.1798 28.0563 65.7284C27.4046 68.2922 26.9338 71.6627 26.7974 74.7417C26.7897 74.9058 26.6563 75.0331 26.4937 75.0346L11.7516 75.122C11.727 75.122 11.704 75.1251 11.6795 75.1312C11.6273 75.1435 11.5583 75.1542 11.4801 75.1542L11.4847 75.1558Z" fill="#2A4B9B" stroke="black" stroke-width="1.13202" stroke-miterlimit="10"/>
<path d="M24.1977 45.3531C24.0291 45.3653 23.8819 45.2365 23.8711 45.0678C23.086 33.5657 25.2343 28.6374 27.1848 26.5305C28.0681 25.5767 29.1046 25.0063 30.1382 24.902C30.316 24.8836 30.4694 25.0262 30.4709 25.2056V25.2087C30.4709 25.3666 30.3513 25.497 30.1949 25.5138C29.5877 25.5798 28.6293 25.8757 27.6356 26.9476C25.7664 28.9671 23.7132 33.7436 24.4829 45.0264C24.4937 45.1936 24.3679 45.3408 24.2008 45.3531H24.1977Z" fill="#2A4B9B" stroke="black" stroke-width="1.13202" stroke-miterlimit="10"/>
<path d="M20.0707 51.8838C19.948 52.0233 19.7287 52.0249 19.6091 51.8823C18.2613 50.2691 15.0166 43.7 16.3506 37.1508C16.9241 34.337 18.2245 32.2577 20.2179 30.9712C21.9568 29.8487 23.8168 29.6202 24.858 29.7368C25.0374 29.7567 25.157 29.9315 25.1171 30.1063V30.1125C25.0819 30.2627 24.9423 30.3639 24.789 30.3486C24.0238 30.2719 22.288 30.3655 20.5506 31.4864C18.7014 32.6794 17.4915 34.6268 16.9517 37.2735C15.6698 43.562 18.8501 50.0575 20.0738 51.4882C20.1719 51.6032 20.1688 51.7719 20.0692 51.8853L20.0707 51.8838Z" fill="#2A4B9B" stroke="black" stroke-width="1.13202" stroke-miterlimit="10"/>
</svg>
