<svg width="880" height="395" viewBox="0 0 880 395" fill="none" xmlns="http://www.w3.org/2000/svg">
<g filter="url(#filter0_f_141_6)">
<path d="M160.422 11.1434H197.722V384.145H160.422V171.001H135.377V224.287H110.866V171.001H123.121V117.715H148.166V64.4294H160.422V11.1434ZM11.2207 11.1434H48.5209V64.4294H60.7767V117.715H85.8211V171.001H98.0769V224.287H73.5653V171.001H48.5209V384.145H11.2207V11.1434ZM98.0769 277.573V224.287H110.866V277.573H98.0769ZM234.98 384.145V11.1434H421.481V64.4294H272.28V171.001H346.881V224.287H272.28V330.859H421.481V384.145H234.98ZM620.196 64.4294H645.241V224.287H620.196V277.573H496.04V384.145H458.74V11.1434H620.196V64.4294ZM496.04 224.287H595.685V171.001H620.196V117.715H595.685V64.4294H496.04V224.287ZM682.499 11.1434H719.8V117.715H744.844V171.001H707.544V117.715H682.499V11.1434ZM831.7 11.1434H869V384.145H831.7V171.001H806.656V117.715H831.7V11.1434ZM744.844 224.287V171.001H806.656V224.287H744.844Z" fill="#001AFF"/>
</g>
<defs>
<filter id="filter0_f_141_6" x="0.894796" y="0.817434" width="878.431" height="393.654" filterUnits="userSpaceOnUse" color-interpolation-filters="sRGB">
<feFlood flood-opacity="0" result="BackgroundImageFix"/>
<feBlend mode="normal" in="SourceGraphic" in2="BackgroundImageFix" result="shape"/>
<feGaussianBlur stdDeviation="5.16295" result="effect1_foregroundBlur_141_6"/>
</filter>
</defs>
</svg>
