<svg width="327" height="190" viewBox="0 0 327 190" fill="none" xmlns="http://www.w3.org/2000/svg">
<rect x="0.720703" width="326.279" height="189.804" fill="#FF2F05"/>
<path d="M144.763 84.5679H147.149V108.427H144.763V94.7931H143.161V98.2016H141.593V94.7931H142.377V91.3847H143.979V87.9763H144.763V84.5679ZM135.219 84.5679H137.605V87.9763H138.389V91.3847H139.991V94.7931H140.775V98.2016H139.207V94.7931H137.605V108.427H135.219V84.5679ZM140.775 101.61V98.2016H141.593V101.61H140.775ZM149.532 108.427V84.5679H161.461V87.9763H151.918V94.7931H156.689V98.2016H151.918V105.018H161.461V108.427H149.532ZM174.172 87.9763H175.774V98.2016H174.172V101.61H166.23V108.427H163.844V84.5679H174.172V87.9763ZM166.23 98.2016H172.604V94.7931H174.172V91.3847H172.604V87.9763H166.23V98.2016ZM178.157 84.5679H180.543V91.3847H182.145V94.7931H179.759V91.3847H178.157V84.5679ZM187.701 84.5679H190.087V108.427H187.701V94.7931H186.099V91.3847H187.701V84.5679ZM182.145 98.2016V94.7931H186.099V98.2016H182.145Z" fill="white"/>
</svg>
