<svg width="206" height="25" viewBox="0 0 206 25" fill="none" xmlns="http://www.w3.org/2000/svg">
<path d="M148.528 3.59004H150.13V13.8153H148.528V17.2237H140.587V24.0405H138.201V0.181641H148.528V3.59004ZM140.587 13.8153H146.961V10.4068H148.528V6.99845H146.961V3.59004H140.587V13.8153Z" fill="white"/>
<path d="M133.399 0.181641H135.785V17.2237H135.001V20.6321H131.797V17.2237H133.399V10.4068H131.797V6.99845H133.399V0.181641ZM123.855 0.181641H126.241V6.99845H127.843V10.4068H125.457V6.99845H123.855V0.181641ZM127.843 13.8153V10.4068H131.797V13.8153H127.843ZM125.457 20.6321V17.2237H127.843V20.6321H125.457ZM131.797 20.6321V24.0405H127.843V20.6321H131.797Z" fill="white"/>
<path d="M109.542 0.181641H121.472V3.59004H116.7V24.0405H114.314V3.59004H109.542V0.181641Z" fill="white"/>
<path d="M86.3427 0.181641H88.7286V6.99845H95.1023V10.4068H96.6702V13.8153H94.2843V10.4068H88.7286V20.6321H94.2843V17.2237H96.6702V20.6321H95.1023V24.0405H86.3427V0.181641ZM96.6702 17.2237V13.8153H98.2721V17.2237H96.6702Z" fill="white"/>
<path d="M72.0301 0.181641H83.9595V3.59004H79.1877V24.0405H76.8019V3.59004H72.0301V0.181641Z" fill="white"/>
<path d="M64.8751 3.59004H62.4892V0.181641H64.8751V3.59004ZM62.4892 3.59004V6.99845H60.8873V10.4068H60.1034V13.8153H67.261V10.4068H66.4771V6.99845H64.8751V3.59004H68.0449V6.99845H69.6469V24.0405H67.261V17.2237H60.1034V24.0405H57.7175V6.99845H59.3194V3.59004H62.4892Z" fill="white"/>
<path d="M53.7323 3.59004H55.3343V13.8153H53.7323V17.2237H45.7907V24.0405H43.4048V0.181641H53.7323V3.59004ZM45.7907 13.8153H52.1644V10.4068H53.7323V6.99845H52.1644V3.59004H45.7907V13.8153Z" fill="white"/>
<path d="M29.0589 0.181641H40.9883V3.59004H31.4448V10.4068H38.6025V13.8153H40.9883V17.2237H40.2044V20.6321H38.6025V24.0405H29.0589V0.181641ZM31.4448 13.8153V20.598H38.6025V13.8153H31.4448Z" fill="white"/>
<path d="M14.713 0.181641H17.0989V6.93028H21.0526V10.475H17.0989V20.6321H21.0867V10.475H22.6546V20.6321H21.8707V24.0405H14.713V0.181641ZM24.2565 24.0405V0.181641H26.6424V24.0405H24.2565Z" fill="white"/>
<path d="M2.78627 3.59004V10.4068H9.15998V3.59004H11.5459V6.99845H12.3298V10.4068H9.94392V13.8153H12.3298V17.2237H11.5459V20.6321H9.15998V13.8153H2.78627V20.6321H9.15998V24.0405H0.400391V0.181641H9.15998V3.59004H2.78627Z" fill="white"/>
<path d="M193.615 7.23705V3.86273H196.001V7.23705H193.615ZM200.738 7.23705V10.6455H196.001V7.23705H200.738ZM200.738 14.0198V10.6455H205.476V14.0198H200.738ZM200.738 14.0198V17.4282H196.001V14.0198H200.738ZM193.615 20.8025V17.4282H196.001V20.8025H193.615Z" fill="white"/>
<path d="M178.109 15.8944V12.486H190.039V15.8944H178.109Z" fill="white"/>
</svg>
