<svg width="330" height="190" viewBox="0 0 330 190" fill="none" xmlns="http://www.w3.org/2000/svg">
<rect x="0.697266" width="328.746" height="189.804" fill="white"/>
<path d="M77.0207 83.3634H79.4066V107.222H77.0207V96.997H69.8631V107.222H67.4772V83.3634H69.8631V93.5886H77.0207V83.3634ZM88.9475 86.7718H86.5616V83.3634H88.9475V86.7718ZM86.5616 86.7718V90.1802H84.9596V93.5886H84.1757V96.997H91.3333V93.5886H90.5494V90.1802H88.9475V86.7718H92.1173V90.1802H93.7192V107.222H91.3333V100.405H84.1757V107.222H81.7898V90.1802H83.3918V86.7718H86.5616ZM105.646 83.3634H108.032V107.222H96.1024V83.3634H98.4883V103.814H100.874V83.3634H103.26V103.814H105.646V83.3634ZM110.448 107.222V83.3634H122.378V86.7718H112.834V93.5886H117.606V96.997H112.834V103.814H122.378V107.222H110.448ZM143.158 83.3634H145.544V107.222H143.158V93.5886H140.772V96.997H138.387V93.5886H140.772V90.1802H142.374V86.7718H143.158V83.3634ZM133.615 83.3634H136.001V96.997H138.387V100.405H136.785V103.814H136.001V107.222H133.615V83.3634ZM150.347 103.814V100.405H148.745V96.997H147.961V93.5886H148.745V90.1802H150.347V86.7718H151.949V83.3634H158.288V86.7718H151.949V103.814H158.288V107.222H151.949V103.814H150.347ZM158.288 90.1802V86.7718H159.89V90.1802H158.288ZM158.288 103.814V100.405H159.89V103.814H158.288ZM162.307 83.3634H164.693V93.5886H166.295V96.997H164.693V107.222H162.307V83.3634ZM170.248 83.3634H172.634V86.7718H170.248V90.1802H168.68V93.5886H166.295V90.1802H168.68V86.7718H170.248V83.3634ZM168.68 96.997V100.405H171.066V103.814H167.862V100.405H166.295V96.997H168.68ZM171.066 107.222V103.814H174.236V107.222H171.066ZM186.196 83.3634H188.582V100.405H187.798V103.814H184.594V100.405H186.196V93.5886H184.594V90.1802H186.196V83.3634ZM176.653 83.3634H179.038V90.1802H180.64V93.5886H178.255V90.1802H176.653V83.3634ZM180.64 96.997V93.5886H184.594V96.997H180.64ZM178.255 103.814V100.405H180.64V103.814H178.255ZM184.594 103.814V107.222H180.64V103.814H184.594ZM193.384 103.814V100.405H191.782V96.997H190.999V93.5886H191.782V90.1802H193.384V86.7718H194.986V83.3634H201.326V86.7718H194.986V103.814H201.326V107.222H194.986V103.814H193.384ZM201.326 90.1802V86.7718H202.928V90.1802H201.326ZM201.326 103.814V100.405H202.928V103.814H201.326ZM207.73 103.814V100.405H206.128V96.997H205.344V93.5886H206.128V90.1802H207.73V86.7718H209.332V83.3634H215.672V86.7718H209.332V103.814H215.672V107.222H209.332V103.814H207.73ZM215.672 90.1802V86.7718H217.274V90.1802H215.672ZM215.672 103.814V100.405H217.274V103.814H215.672ZM219.69 83.3634H231.62V86.7718H226.848V107.222H224.462V86.7718H219.69V83.3634ZM236.389 86.7718V93.5886H242.763V86.7718H245.148V90.1802H245.932V93.5886H243.546V96.997H245.932V100.405H245.148V103.814H242.763V96.997H236.389V103.814H242.763V107.222H234.003V83.3634H242.763V86.7718H236.389ZM252.303 83.3634H256.257V86.7718H258.643V90.1802H260.245V100.405H258.643V103.814H256.257V107.222H252.303V103.814H249.918V100.405H248.316V90.1802H249.918V86.7718H252.303V83.3634ZM250.701 90.1802V100.405H253.087V103.814H255.473V100.405H257.859V90.1802H255.473V86.7718H253.087V90.1802H250.701Z" fill="#FF2F05"/>
</svg>
