<svg width="272" height="34" viewBox="0 0 272 34" fill="none" xmlns="http://www.w3.org/2000/svg">
<path d="M271.49 27.348H268.293L267.393 21.8839H262.194L261.217 27.348H258.115L263.151 0.838745H266.512L271.49 27.348ZM266.569 17.3033L264.817 6.80784H264.779L262.979 17.3033H266.569Z" fill="#001AFF"/>
<path d="M254.768 27.348V15.5H249.244V27.348H246.295V0.838745H249.244V10.9195H254.768V0.838745H257.707V27.348H254.768Z" fill="#001AFF"/>
<path d="M245.895 27.348H242.697L241.797 21.8839H236.598L235.622 27.348H232.52L237.556 0.838745H240.916L245.895 27.348ZM240.974 17.3033L239.221 6.80784H239.183L237.383 17.3033H240.974Z" fill="#001AFF"/>
<path d="M231.825 22.7675H233.289V33.0286H230.743V27.348H220.412V0.838745H223.361V22.7675H228.885V0.838745H231.825V22.7675Z" fill="#001AFF"/>
<path d="M220.014 27.348H216.816L215.916 21.8839H210.717L209.741 27.348H206.639L211.675 0.838745H215.035L220.014 27.348ZM215.093 17.3033L213.341 6.80784H213.302L211.502 17.3033H215.093Z" fill="#001AFF"/>
<path d="M194.818 0.838745H206.231V27.348H203.292V5.40122H197.767V27.348H194.818V0.838745Z" fill="#001AFF"/>
<path d="M180.137 26.9513C179.288 26.242 178.583 25.2682 178.021 24.0299C177.459 22.7796 177.038 21.3068 176.757 19.6117C176.476 17.9045 176.336 16.0651 176.336 14.0934C176.336 12.1097 176.476 10.2703 176.757 8.57516C177.038 6.88001 177.459 5.41328 178.021 4.17498C178.583 2.92466 179.288 1.94484 180.137 1.23552C180.986 0.526199 181.975 0.171539 183.105 0.171539C184.145 0.171539 185.084 0.526199 185.92 1.23552C186.756 1.94484 187.464 2.92466 188.045 4.17498C188.632 5.41328 189.082 6.88001 189.395 8.57516C189.708 10.2703 189.864 12.1097 189.864 14.0934C189.864 16.0651 189.708 17.9045 189.395 19.6117C189.082 21.3068 188.632 22.7796 188.045 24.0299C187.464 25.2682 186.756 26.242 185.92 26.9513C185.084 27.6606 184.145 28.0153 183.105 28.0153C181.975 28.0153 180.986 27.6606 180.137 26.9513ZM179.275 14.0934C179.275 15.4159 179.365 16.6301 179.543 17.7362C179.716 18.8543 179.965 19.8221 180.29 20.6396C180.622 21.4451 181.024 22.0762 181.496 22.5331C181.969 22.9899 182.505 23.2184 183.105 23.2184C183.705 23.2184 184.241 22.9899 184.713 22.5331C185.186 22.0762 185.585 21.4451 185.91 20.6396C186.242 19.8221 186.494 18.8603 186.667 17.7542C186.839 16.6361 186.925 15.4159 186.925 14.0934C186.925 12.771 186.839 11.5567 186.667 10.4506C186.494 9.33256 186.242 8.37078 185.91 7.56528C185.585 6.74776 185.186 6.11058 184.713 5.65373C184.241 5.19688 183.705 4.96845 183.105 4.96845C182.505 4.96845 181.969 5.19688 181.496 5.65373C181.024 6.11058 180.622 6.74776 180.29 7.56528C179.965 8.37078 179.712 9.33256 179.534 10.4506C179.361 11.5567 179.275 12.771 179.275 14.0934Z" fill="#001AFF"/>
<path d="M167.121 0.838745H176.59V5.40122H170.06V27.348H167.121V0.838745Z" fill="#001AFF"/>
<path d="M156.285 26.9513C155.436 26.242 154.731 25.2682 154.169 24.0299C153.608 22.7796 153.186 21.3068 152.906 19.6117C152.625 17.9045 152.484 16.0651 152.484 14.0934C152.484 12.1097 152.625 10.2703 152.906 8.57516C153.186 6.88001 153.608 5.41328 154.169 4.17498C154.731 2.92466 155.436 1.94484 156.285 1.23552C157.134 0.526199 158.124 0.171539 159.253 0.171539C160.294 0.171539 161.232 0.526199 162.068 1.23552C162.904 1.94484 163.613 2.92466 164.194 4.17498C164.781 5.41328 165.231 6.88001 165.544 8.57516C165.856 10.2703 166.013 12.1097 166.013 14.0934C166.013 16.0651 165.856 17.9045 165.544 19.6117C165.231 21.3068 164.781 22.7796 164.194 24.0299C163.613 25.2682 162.904 26.242 162.068 26.9513C161.232 27.6606 160.294 28.0153 159.253 28.0153C158.124 28.0153 157.134 27.6606 156.285 26.9513ZM155.424 14.0934C155.424 15.4159 155.513 16.6301 155.692 17.7362C155.864 18.8543 156.113 19.8221 156.439 20.6396C156.77 21.4451 157.173 22.0762 157.645 22.5331C158.117 22.9899 158.653 23.2184 159.253 23.2184C159.853 23.2184 160.39 22.9899 160.862 22.5331C161.334 22.0762 161.733 21.4451 162.059 20.6396C162.391 19.8221 162.643 18.8603 162.815 17.7542C162.987 16.6361 163.073 15.4159 163.073 14.0934C163.073 12.771 162.987 11.5567 162.815 10.4506C162.643 9.33256 162.391 8.37078 162.059 7.56528C161.733 6.74776 161.334 6.11058 160.862 5.65373C160.39 5.19688 159.853 4.96845 159.253 4.96845C158.653 4.96845 158.117 5.19688 157.645 5.65373C157.173 6.11058 156.77 6.74776 156.439 7.56528C156.113 8.37078 155.861 9.33256 155.682 10.4506C155.51 11.5567 155.424 12.771 155.424 14.0934Z" fill="#001AFF"/>
<path d="M148.669 27.348V15.5H143.144V27.348H140.195V0.838745H143.144V10.9195H148.669V0.838745H151.608V27.348H148.669Z" fill="#001AFF"/>
<path d="M136.062 1.14531C136.496 1.34969 136.873 1.62621 137.192 1.97486C137.511 2.3235 137.779 2.72625 137.996 3.1831C138.213 3.63995 138.385 4.12084 138.513 4.62578C138.641 5.1187 138.73 5.62364 138.781 6.1406C138.839 6.65756 138.867 7.15047 138.867 7.61935C138.867 8.2926 138.835 8.89973 138.772 9.44073C138.708 9.96971 138.606 10.4566 138.465 10.9014C138.331 11.3342 138.152 11.731 137.929 12.0917C137.712 12.4403 137.45 12.7589 137.144 13.0474C137.616 13.3841 137.996 13.7988 138.283 14.2917C138.571 14.7847 138.791 15.3197 138.944 15.8967C139.097 16.4618 139.199 17.0509 139.25 17.664C139.301 18.2651 139.327 18.8482 139.327 19.4133C139.327 20.6997 139.202 21.8358 138.953 22.8216C138.705 23.8074 138.353 24.637 137.9 25.3102C137.447 25.9714 136.895 26.4764 136.244 26.825C135.599 27.1737 134.881 27.348 134.09 27.348H127.637V0.838745H134.54C135.114 0.838745 135.622 0.940935 136.062 1.14531ZM134.904 15.7525C134.623 15.6803 134.339 15.6443 134.051 15.6443H130.461V22.7675H134.128C134.454 22.7675 134.754 22.6954 135.028 22.5511C135.302 22.4068 135.539 22.1904 135.737 21.9019C135.941 21.6013 136.097 21.2286 136.206 20.7838C136.321 20.327 136.378 19.792 136.378 19.1788C136.378 18.4094 136.311 17.7963 136.177 17.3394C136.043 16.8705 135.864 16.5099 135.641 16.2574C135.424 16.0049 135.178 15.8366 134.904 15.7525ZM135.459 10.5768C135.638 10.3364 135.781 10.0238 135.89 9.6391C135.998 9.25439 136.052 8.79152 136.052 8.25052C136.052 7.68547 136.001 7.22261 135.899 6.86194C135.804 6.48925 135.67 6.1947 135.497 5.9783C135.325 5.76189 135.124 5.61161 134.894 5.52746C134.664 5.4433 134.422 5.40122 134.166 5.40122H130.461V11.2801H134.09C134.345 11.2801 134.591 11.226 134.827 11.1178C135.063 11.0096 135.274 10.8293 135.459 10.5768Z" fill="#001AFF"/>
<path d="M116.803 26.9513C115.954 26.242 115.249 25.2682 114.687 24.0299C114.125 22.7796 113.704 21.3068 113.423 19.6117C113.142 17.9045 113.002 16.0651 113.002 14.0934C113.002 12.1097 113.142 10.2703 113.423 8.57516C113.704 6.88001 114.125 5.41328 114.687 4.17498C115.249 2.92466 115.954 1.94484 116.803 1.23552C117.652 0.526199 118.641 0.171539 119.771 0.171539C120.811 0.171539 121.75 0.526199 122.586 1.23552C123.422 1.94484 124.13 2.92466 124.711 4.17498C125.298 5.41328 125.748 6.88001 126.061 8.57516C126.374 10.2703 126.53 12.1097 126.53 14.0934C126.53 16.0651 126.374 17.9045 126.061 19.6117C125.748 21.3068 125.298 22.7796 124.711 24.0299C124.13 25.2682 123.422 26.242 122.586 26.9513C121.75 27.6606 120.811 28.0153 119.771 28.0153C118.641 28.0153 117.652 27.6606 116.803 26.9513ZM115.941 14.0934C115.941 15.4159 116.031 16.6301 116.209 17.7362C116.382 18.8543 116.631 19.8221 116.956 20.6396C117.288 21.4451 117.69 22.0762 118.162 22.5331C118.635 22.9899 119.171 23.2184 119.771 23.2184C120.371 23.2184 120.907 22.9899 121.379 22.5331C121.852 22.0762 122.251 21.4451 122.576 20.6396C122.908 19.8221 123.16 18.8603 123.333 17.7542C123.505 16.6361 123.591 15.4159 123.591 14.0934C123.591 12.771 123.505 11.5567 123.333 10.4506C123.16 9.33256 122.908 8.37078 122.576 7.56528C122.251 6.74776 121.852 6.11058 121.379 5.65373C120.907 5.19688 120.371 4.96845 119.771 4.96845C119.171 4.96845 118.635 5.19688 118.162 5.65373C117.69 6.11058 117.288 6.74776 116.956 7.56528C116.631 8.37078 116.378 9.33256 116.2 10.4506C116.027 11.5567 115.941 12.771 115.941 14.0934Z" fill="#001AFF"/>
<path d="M110.152 17.1951C109.578 17.6159 108.927 17.8263 108.199 17.8263H104.982V27.348H102.043V0.838745H108.439C109.185 0.838745 109.833 1.0311 110.382 1.41582C110.937 1.80053 111.397 2.35957 111.761 3.09293C112.125 3.8263 112.396 4.71595 112.575 5.76189C112.753 6.80784 112.843 7.99805 112.843 9.33253C112.843 10.5708 112.737 11.713 112.527 12.7589C112.316 13.7928 112.01 14.6885 111.608 15.4459C111.212 16.1913 110.727 16.7744 110.152 17.1951ZM104.982 13.2458H107.768C108.432 13.2458 108.952 12.9392 109.329 12.3261C109.712 11.713 109.903 10.7151 109.903 9.33253C109.903 8.63523 109.852 8.04013 109.75 7.54721C109.654 7.0543 109.514 6.65155 109.329 6.33897C109.15 6.01436 108.927 5.77993 108.659 5.63566C108.397 5.47937 108.1 5.40122 107.768 5.40122H104.982V13.2458Z" fill="#001AFF"/>
<path d="M94.3613 17.1951C93.7869 17.6159 93.1358 17.8263 92.4082 17.8263H89.1912V27.348H86.252V0.838745H92.6475C93.3943 0.838745 94.0422 1.0311 94.5911 1.41582C95.1464 1.80053 95.606 2.35957 95.9698 3.09293C96.3336 3.8263 96.6049 4.71595 96.7836 5.76189C96.9623 6.80784 97.0517 7.99805 97.0517 9.33253C97.0517 10.5708 96.9464 11.713 96.7357 12.7589C96.5251 13.7928 96.2187 14.6885 95.8166 15.4459C95.4209 16.1913 94.9358 16.7744 94.3613 17.1951ZM89.1912 13.2458H91.9773C92.6412 13.2458 93.1614 12.9392 93.5379 12.3261C93.9209 11.713 94.1124 10.7151 94.1124 9.33253C94.1124 8.63523 94.0613 8.04013 93.9592 7.54721C93.8635 7.0543 93.7231 6.65155 93.5379 6.33897C93.3592 6.01436 93.1358 5.77993 92.8678 5.63566C92.6061 5.47937 92.3093 5.40122 91.9773 5.40122H89.1912V13.2458Z" fill="#001AFF"/>
<path d="M75.4162 26.9513C74.5673 26.242 73.862 25.2682 73.3003 24.0299C72.7386 22.7796 72.3174 21.3068 72.0365 19.6117C71.7557 17.9045 71.6152 16.0651 71.6152 14.0934C71.6152 12.1097 71.7557 10.2703 72.0365 8.57516C72.3174 6.88001 72.7386 5.41328 73.3003 4.17498C73.862 2.92466 74.5673 1.94484 75.4162 1.23552C76.2651 0.526199 77.2545 0.171539 78.3842 0.171539C79.4246 0.171539 80.3629 0.526199 81.1991 1.23552C82.0352 1.94484 82.7437 2.92466 83.3245 4.17498C83.9118 5.41328 84.3617 6.88001 84.6745 8.57516C84.9873 10.2703 85.1436 12.1097 85.1436 14.0934C85.1436 16.0651 84.9873 17.9045 84.6745 19.6117C84.3617 21.3068 83.9118 22.7796 83.3245 24.0299C82.7437 25.2682 82.0352 26.242 81.1991 26.9513C80.3629 27.6606 79.4246 28.0153 78.3842 28.0153C77.2545 28.0153 76.2651 27.6606 75.4162 26.9513ZM74.5545 14.0934C74.5545 15.4159 74.6439 16.6301 74.8226 17.7362C74.9949 18.8543 75.2439 19.8221 75.5694 20.6396C75.9013 21.4451 76.3034 22.0762 76.7758 22.5331C77.2481 22.9899 77.7842 23.2184 78.3842 23.2184C78.9842 23.2184 79.5204 22.9899 79.9927 22.5331C80.465 22.0762 80.864 21.4451 81.1895 20.6396C81.5214 19.8221 81.7735 18.8603 81.9458 17.7542C82.1182 16.6361 82.2044 15.4159 82.2044 14.0934C82.2044 12.771 82.1182 11.5567 81.9458 10.4506C81.7735 9.33256 81.5214 8.37078 81.1895 7.56528C80.864 6.74776 80.465 6.11058 79.9927 5.65373C79.5204 5.19688 78.9842 4.96845 78.3842 4.96845C77.7842 4.96845 77.2481 5.19688 76.7758 5.65373C76.3034 6.11058 75.9013 6.74776 75.5694 7.56528C75.2439 8.37078 74.9918 9.33256 74.813 10.4506C74.6407 11.5567 74.5545 12.771 74.5545 14.0934Z" fill="#001AFF"/>
<path d="M60.3594 0.838745H71.8868V5.40122H67.5879V27.348H64.6486V5.40122H60.3594V0.838745Z" fill="#001AFF"/>
<path d="M61.4834 27.348H57.7591L53.4028 15.6082L51.9666 18.3673V27.348H49.0273V0.838745H51.9666V11.6228L57.3474 0.838745H61.1483L55.4038 11.6949L61.4834 27.348Z" fill="#001AFF"/>
<path d="M46.954 15.8607H40.051V22.5511H47.8923V27.348H37.2266V0.838745H47.5572V5.40122H40.051V11.2801H46.954V15.8607Z" fill="#001AFF"/>
<path d="M25.2227 0.838745H36.75V5.40122H32.4512V27.348H29.5119V5.40122H25.2227V0.838745Z" fill="#001AFF"/>
<path d="M24.6142 15.8607H17.7111V22.5511H25.5524V27.348H14.8867V0.838745H25.2173V5.40122H17.7111V11.2801H24.6142V15.8607Z" fill="#001AFF"/>
<path d="M11.8557 27.348H2.98034V33.0286H0.433594V22.7675H1.66867C1.81548 22.0221 1.95909 21.2587 2.09951 20.4772C2.24632 19.6958 2.38355 18.8482 2.5112 17.9345C2.63886 17.0208 2.75375 16.017 2.85588 14.9229C2.96439 13.8289 3.06013 12.5966 3.1431 11.226C3.22608 9.84348 3.2931 8.30462 3.34416 6.60947C3.39523 4.9023 3.43033 2.97872 3.44948 0.838745H13.0333V22.7675H14.4024V33.0286H11.8557V27.348ZM5.18242 19.3952C5.02285 20.5494 4.83136 21.6735 4.60796 22.7675H10.094V5.40122H6.03453C6.02814 5.88212 6.01857 6.49526 6.0058 7.24064C5.99942 7.98603 5.98027 8.82158 5.94836 9.7473C5.91644 10.661 5.86857 11.6528 5.80474 12.7228C5.7473 13.7808 5.66751 14.8748 5.56539 16.0049C5.46326 17.123 5.33561 18.2531 5.18242 19.3952Z" fill="#001AFF"/>
</svg>
