<svg width="344" height="29" viewBox="0 0 344 29" fill="none" xmlns="http://www.w3.org/2000/svg">
<path d="M343.772 27.7596H340.574L339.674 22.2955H334.475L333.499 27.7596H330.396L335.433 1.25037H338.793L343.772 27.7596ZM338.851 17.715L337.098 7.21946H337.06L335.26 17.715H338.851Z" fill="#001AFF"/>
<path d="M328.016 17.6068C327.441 18.0275 326.79 18.2379 326.062 18.2379H322.846V27.7596H319.906V1.25037H326.302C327.049 1.25037 327.696 1.44272 328.245 1.82744C328.801 2.21215 329.26 2.77119 329.624 3.50456C329.988 4.23792 330.259 5.12757 330.438 6.17351C330.617 7.21946 330.706 8.40967 330.706 9.74415C330.706 10.9825 330.601 12.1246 330.39 13.1705C330.179 14.2044 329.873 15.1001 329.471 15.8575C329.075 16.6029 328.59 17.186 328.016 17.6068ZM322.846 13.6574H325.632C326.295 13.6574 326.816 13.3509 327.192 12.7377C327.575 12.1246 327.767 11.1267 327.767 9.74415C327.767 9.04686 327.716 8.45175 327.614 7.95883C327.518 7.46592 327.377 7.06317 327.192 6.75059C327.014 6.42598 326.79 6.19155 326.522 6.04728C326.26 5.89099 325.964 5.81285 325.632 5.81285H322.846V13.6574Z" fill="#001AFF"/>
<path d="M310.622 23.4677C311.024 23.4677 311.34 23.2452 311.57 22.8004C311.8 22.3556 311.959 21.7965 312.049 21.1233L307.061 1.25037H310.373L313.571 15.4968L316.376 1.25037H319.536L315.045 20.8167C314.458 23.4015 313.836 25.3191 313.178 26.5694C312.521 27.8077 311.787 28.4269 310.976 28.4269C310.721 28.4269 310.498 28.4028 310.306 28.3547C310.121 28.3066 309.958 28.2465 309.818 28.1744C309.684 28.1023 309.563 28.0301 309.454 27.958C309.352 27.8859 309.253 27.8197 309.157 27.7596V22.7283C309.342 22.9567 309.556 23.137 309.799 23.2693C310.041 23.4015 310.316 23.4677 310.622 23.4677Z" fill="#001AFF"/>
<path d="M296.197 1.25037H307.725V5.81285H303.426V27.7596H300.487V5.81285H296.197V1.25037Z" fill="#001AFF"/>
<path d="M282.647 27.3629C281.798 26.6536 281.092 25.6798 280.531 24.4415C279.969 23.1911 279.548 21.7184 279.267 20.0233C278.986 18.3161 278.846 16.4767 278.846 14.505C278.846 12.5213 278.986 10.6819 279.267 8.98675C279.548 7.2916 279.969 5.82487 280.531 4.58657C281.092 3.33625 281.798 2.35643 282.647 1.64711C283.496 0.937789 284.485 0.58313 285.615 0.58313C286.655 0.58313 287.593 0.937789 288.43 1.64711C289.266 2.35643 289.974 3.33625 290.555 4.58657C291.142 5.82487 291.592 7.2916 291.905 8.98675C292.218 10.6819 292.374 12.5213 292.374 14.505C292.374 16.4767 292.218 18.3161 291.905 20.0233C291.592 21.7184 291.142 23.1911 290.555 24.4415C289.974 25.6798 289.266 26.6536 288.43 27.3629C287.593 28.0722 286.655 28.4269 285.615 28.4269C284.485 28.4269 283.496 28.0722 282.647 27.3629ZM281.785 14.505C281.785 15.8275 281.874 17.0417 282.053 18.1478C282.225 19.2658 282.474 20.2336 282.8 21.0512C283.132 21.8567 283.534 22.4878 284.006 22.9447C284.479 23.4015 285.015 23.63 285.615 23.63C286.215 23.63 286.751 23.4015 287.223 22.9447C287.695 22.4878 288.094 21.8567 288.42 21.0512C288.752 20.2336 289.004 19.2719 289.176 18.1658C289.349 17.0477 289.435 15.8275 289.435 14.505C289.435 13.1825 289.349 11.9683 289.176 10.8622C289.004 9.74415 288.752 8.78237 288.42 7.97687C288.094 7.15935 287.695 6.52217 287.223 6.06532C286.751 5.60847 286.215 5.38004 285.615 5.38004C285.015 5.38004 284.479 5.60847 284.006 6.06532C283.534 6.52217 283.132 7.15935 282.8 7.97687C282.474 8.78237 282.222 9.74415 282.043 10.8622C281.871 11.9683 281.785 13.1825 281.785 14.505Z" fill="#001AFF"/>
<path d="M269.629 1.25037H279.098V5.81285H272.568V27.7596H269.629V1.25037Z" fill="#001AFF"/>
<path d="M258.795 27.3629C257.946 26.6536 257.241 25.6798 256.679 24.4415C256.118 23.1911 255.696 21.7184 255.415 20.0233C255.135 18.3161 254.994 16.4767 254.994 14.505C254.994 12.5213 255.135 10.6819 255.415 8.98675C255.696 7.2916 256.118 5.82487 256.679 4.58657C257.241 3.33625 257.946 2.35643 258.795 1.64711C259.644 0.937789 260.633 0.58313 261.763 0.58313C262.804 0.58313 263.742 0.937789 264.578 1.64711C265.414 2.35643 266.123 3.33625 266.703 4.58657C267.291 5.82487 267.741 7.2916 268.053 8.98675C268.366 10.6819 268.523 12.5213 268.523 14.505C268.523 16.4767 268.366 18.3161 268.053 20.0233C267.741 21.7184 267.291 23.1911 266.703 24.4415C266.123 25.6798 265.414 26.6536 264.578 27.3629C263.742 28.0722 262.804 28.4269 261.763 28.4269C260.633 28.4269 259.644 28.0722 258.795 27.3629ZM257.933 14.505C257.933 15.8275 258.023 17.0417 258.202 18.1478C258.374 19.2658 258.623 20.2336 258.948 21.0512C259.28 21.8567 259.682 22.4878 260.155 22.9447C260.627 23.4015 261.163 23.63 261.763 23.63C262.363 23.63 262.899 23.4015 263.372 22.9447C263.844 22.4878 264.243 21.8567 264.568 21.0512C264.9 20.2336 265.152 19.2719 265.325 18.1658C265.497 17.0477 265.583 15.8275 265.583 14.505C265.583 13.1825 265.497 11.9683 265.325 10.8622C265.152 9.74415 264.9 8.78237 264.568 7.97687C264.243 7.15935 263.844 6.52217 263.372 6.06532C262.899 5.60847 262.363 5.38004 261.763 5.38004C261.163 5.38004 260.627 5.60847 260.155 6.06532C259.682 6.52217 259.28 7.15935 258.948 7.97687C258.623 8.78237 258.371 9.74415 258.192 10.8622C258.02 11.9683 257.933 13.1825 257.933 14.505Z" fill="#001AFF"/>
<path d="M255.495 27.7596H251.771L247.415 16.0198L245.978 18.7789V27.7596H243.039V1.25037H245.978V12.0344L251.359 1.25037H255.16L249.416 12.1065L255.495 27.7596Z" fill="#001AFF"/>
<path d="M234.358 22.9988C234.779 23.4196 235.258 23.63 235.794 23.63C236.413 23.63 236.917 23.4496 237.307 23.089C237.696 22.7283 238.006 22.2895 238.235 21.7725C238.472 21.2555 238.647 20.7145 238.762 20.1495C238.877 19.5844 238.966 19.0915 239.03 18.6707H241.95C241.791 20.3298 241.526 21.7725 241.156 22.9988C240.785 24.213 240.335 25.2229 239.806 26.0284C239.276 26.8339 238.679 27.435 238.015 27.8318C237.358 28.2285 236.656 28.4269 235.909 28.4269C234.862 28.4269 233.933 28.1023 233.123 27.4531C232.319 26.7918 231.639 25.8541 231.084 24.6398C230.535 23.4256 230.117 21.9649 229.829 20.2577C229.542 18.5385 229.398 16.6209 229.398 14.505C229.398 12.87 229.481 11.3912 229.647 10.0688C229.813 8.7463 230.043 7.57412 230.337 6.55222C230.637 5.5183 230.988 4.62865 231.39 3.88326C231.792 3.12586 232.229 2.5067 232.702 2.02581C233.18 1.53289 233.681 1.17222 234.205 0.9438C234.728 0.703353 235.258 0.58313 235.794 0.58313C236.56 0.58313 237.24 0.73341 237.833 1.03397C238.427 1.33453 238.947 1.73727 239.394 2.24221C239.841 2.74715 240.221 3.32422 240.533 3.97343C240.852 4.62264 241.111 5.29589 241.309 5.99318C241.513 6.67846 241.663 7.36974 241.759 8.06704C241.861 8.75231 241.925 9.38348 241.95 9.96056H239.011C238.973 9.70809 238.925 9.41955 238.867 9.09495C238.81 8.75832 238.73 8.4217 238.628 8.08507C238.532 7.74845 238.408 7.41783 238.255 7.09323C238.108 6.76862 237.923 6.48009 237.699 6.22762C237.476 5.97515 237.208 5.77077 236.895 5.61448C236.582 5.45819 236.215 5.38004 235.794 5.38004C235.615 5.38004 235.405 5.42212 235.162 5.50628C234.92 5.59044 234.671 5.75274 234.415 5.99318C234.16 6.22161 233.908 6.54621 233.659 6.96699C233.41 7.38778 233.187 7.9408 232.989 8.62608C232.797 9.29933 232.641 10.1168 232.52 11.0786C232.398 12.0404 232.338 13.1825 232.338 14.505C232.338 15.9357 232.418 17.216 232.577 18.3461C232.737 19.4762 232.966 20.432 233.266 21.2135C233.566 21.9949 233.93 22.59 234.358 22.9988Z" fill="#001AFF"/>
<path d="M228.167 16.2723H221.264V22.9627H229.105V27.7596H218.439V1.25037H228.77V5.81285H221.264V11.6918H228.167V16.2723Z" fill="#001AFF"/>
<path d="M210.766 17.9674C210.549 17.9915 210.396 18.0035 210.306 18.0035C209.611 18.0035 209.02 17.8953 208.535 17.6789C208.05 17.4625 207.648 17.174 207.329 16.8133C207.01 16.4526 206.761 16.0318 206.582 15.5509C206.403 15.07 206.269 14.5711 206.18 14.0542C206.09 13.5372 206.036 13.0142 206.017 12.4852C205.998 11.9563 205.988 11.4573 205.988 10.9885V1.25037H208.813V9.65398C208.813 10.5196 208.857 11.2289 208.947 11.7819C209.036 12.3229 209.18 12.7497 209.378 13.0623C209.575 13.3749 209.831 13.5913 210.144 13.7115C210.463 13.8197 210.849 13.8738 211.302 13.8738C211.487 13.8738 211.698 13.8618 211.934 13.8378C212.176 13.8017 212.419 13.7536 212.662 13.6935C212.91 13.6334 213.15 13.5612 213.38 13.4771C213.616 13.3809 213.826 13.2787 214.012 13.1705V1.25037H216.951V27.7596H214.012V17.1559C213.52 17.3483 213.067 17.5046 212.652 17.6248C212.237 17.733 211.87 17.8172 211.551 17.8773C211.238 17.9254 210.976 17.9554 210.766 17.9674Z" fill="#001AFF"/>
<path d="M202.285 27.7596V9.81628H202.247L196.684 27.7596H193.697V1.25037H196.522V19.3019H196.56L202.132 1.25037H205.11V27.7596H202.285Z" fill="#001AFF"/>
<path d="M188.014 1.25037H192.332V27.7596H189.622V5.59644H189.584L186.913 27.7596H184.05L181.484 5.59644H181.446V27.7596H178.736V1.25037H183.035L185.505 21.8807H185.544L188.014 1.25037Z" fill="#001AFF"/>
<path d="M170.391 22.9988C170.812 23.4196 171.291 23.63 171.827 23.63C172.446 23.63 172.951 23.4496 173.34 23.089C173.729 22.7283 174.039 22.2895 174.269 21.7725C174.505 21.2555 174.68 20.7145 174.795 20.1495C174.91 19.5844 175 19.0915 175.063 18.6707H177.983C177.824 20.3298 177.559 21.7725 177.189 22.9988C176.819 24.213 176.369 25.2229 175.839 26.0284C175.309 26.8339 174.712 27.435 174.048 27.8318C173.391 28.2285 172.689 28.4269 171.942 28.4269C170.895 28.4269 169.967 28.1023 169.156 27.4531C168.352 26.7918 167.672 25.8541 167.117 24.6398C166.568 23.4256 166.15 21.9649 165.862 20.2577C165.575 18.5385 165.432 16.6209 165.432 14.505C165.432 12.87 165.515 11.3912 165.681 10.0688C165.847 8.7463 166.076 7.57412 166.37 6.55222C166.67 5.5183 167.021 4.62865 167.423 3.88326C167.825 3.12586 168.262 2.5067 168.735 2.02581C169.213 1.53289 169.715 1.17222 170.238 0.9438C170.761 0.703353 171.291 0.58313 171.827 0.58313C172.593 0.58313 173.273 0.73341 173.867 1.03397C174.46 1.33453 174.98 1.73727 175.427 2.24221C175.874 2.74715 176.254 3.32422 176.566 3.97343C176.886 4.62264 177.144 5.29589 177.342 5.99318C177.546 6.67846 177.696 7.36974 177.792 8.06704C177.894 8.75231 177.958 9.38348 177.983 9.96056H175.044C175.006 9.70809 174.958 9.41955 174.901 9.09495C174.843 8.75832 174.763 8.4217 174.661 8.08507C174.565 7.74845 174.441 7.41783 174.288 7.09323C174.141 6.76862 173.956 6.48009 173.733 6.22762C173.509 5.97515 173.241 5.77077 172.928 5.61448C172.616 5.45819 172.249 5.38004 171.827 5.38004C171.649 5.38004 171.438 5.42212 171.195 5.50628C170.953 5.59044 170.704 5.75274 170.449 5.99318C170.193 6.22161 169.941 6.54621 169.692 6.96699C169.443 7.38778 169.22 7.9408 169.022 8.62608C168.831 9.29933 168.674 10.1168 168.553 11.0786C168.432 12.0404 168.371 13.1825 168.371 14.505C168.371 15.9357 168.451 17.216 168.61 18.3461C168.77 19.4762 169 20.432 169.3 21.2135C169.6 21.9949 169.963 22.59 170.391 22.9988Z" fill="#001AFF"/>
<path d="M155.344 27.3629C154.495 26.6536 153.79 25.6798 153.228 24.4415C152.666 23.1911 152.245 21.7184 151.964 20.0233C151.683 18.3161 151.543 16.4767 151.543 14.505C151.543 12.5213 151.683 10.6819 151.964 8.98675C152.245 7.2916 152.666 5.82487 153.228 4.58657C153.79 3.33625 154.495 2.35643 155.344 1.64711C156.193 0.937789 157.182 0.58313 158.312 0.58313C159.352 0.58313 160.291 0.937789 161.127 1.64711C161.963 2.35643 162.671 3.33625 163.252 4.58657C163.839 5.82487 164.289 7.2916 164.602 8.98675C164.915 10.6819 165.071 12.5213 165.071 14.505C165.071 16.4767 164.915 18.3161 164.602 20.0233C164.289 21.7184 163.839 23.1911 163.252 24.4415C162.671 25.6798 161.963 26.6536 161.127 27.3629C160.291 28.0722 159.352 28.4269 158.312 28.4269C157.182 28.4269 156.193 28.0722 155.344 27.3629ZM154.482 14.505C154.482 15.8275 154.572 17.0417 154.75 18.1478C154.923 19.2658 155.172 20.2336 155.497 21.0512C155.829 21.8567 156.231 22.4878 156.703 22.9447C157.176 23.4015 157.712 23.63 158.312 23.63C158.912 23.63 159.448 23.4015 159.92 22.9447C160.393 22.4878 160.792 21.8567 161.117 21.0512C161.449 20.2336 161.701 19.2719 161.874 18.1658C162.046 17.0477 162.132 15.8275 162.132 14.505C162.132 13.1825 162.046 11.9683 161.874 10.8622C161.701 9.74415 161.449 8.78237 161.117 7.97687C160.792 7.15935 160.393 6.52217 159.92 6.06532C159.448 5.60847 158.912 5.38004 158.312 5.38004C157.712 5.38004 157.176 5.60847 156.703 6.06532C156.231 6.52217 155.829 7.15935 155.497 7.97687C155.172 8.78237 154.919 9.74415 154.741 10.8622C154.568 11.9683 154.482 13.1825 154.482 14.505Z" fill="#001AFF"/>
<path d="M152.044 27.7596H148.32L143.963 16.0198L142.527 18.7789V27.7596H139.588V1.25037H142.527V12.0344L147.908 1.25037H151.709L145.964 12.1065L152.044 27.7596Z" fill="#001AFF"/>
<path d="M131.811 17.6068C131.236 18.0275 130.585 18.2379 129.857 18.2379H126.64V27.7596H123.701V1.25037H130.097C130.844 1.25037 131.491 1.44272 132.04 1.82744C132.596 2.21215 133.055 2.77119 133.419 3.50456C133.783 4.23792 134.054 5.12757 134.233 6.17351C134.412 7.21946 134.501 8.40967 134.501 9.74415C134.501 10.9825 134.396 12.1246 134.185 13.1705C133.974 14.2044 133.668 15.1001 133.266 15.8575C132.87 16.6029 132.385 17.186 131.811 17.6068ZM126.64 13.6574H129.427C130.09 13.6574 130.611 13.3509 130.987 12.7377C131.37 12.1246 131.562 11.1267 131.562 9.74415C131.562 9.04686 131.511 8.45175 131.408 7.95883C131.313 7.46592 131.172 7.06317 130.987 6.75059C130.808 6.42598 130.585 6.19155 130.317 6.04728C130.055 5.89099 129.758 5.81285 129.427 5.81285H126.64V13.6574Z" fill="#001AFF"/>
<path d="M112.867 27.3629C112.018 26.6536 111.313 25.6798 110.751 24.4415C110.19 23.1911 109.769 21.7184 109.488 20.0233C109.207 18.3161 109.066 16.4767 109.066 14.505C109.066 12.5213 109.207 10.6819 109.488 8.98675C109.769 7.2916 110.19 5.82487 110.751 4.58657C111.313 3.33625 112.018 2.35643 112.867 1.64711C113.716 0.937789 114.706 0.58313 115.835 0.58313C116.876 0.58313 117.814 0.937789 118.65 1.64711C119.486 2.35643 120.195 3.33625 120.776 4.58657C121.363 5.82487 121.813 7.2916 122.126 8.98675C122.438 10.6819 122.595 12.5213 122.595 14.505C122.595 16.4767 122.438 18.3161 122.126 20.0233C121.813 21.7184 121.363 23.1911 120.776 24.4415C120.195 25.6798 119.486 26.6536 118.65 27.3629C117.814 28.0722 116.876 28.4269 115.835 28.4269C114.706 28.4269 113.716 28.0722 112.867 27.3629ZM112.006 14.505C112.006 15.8275 112.095 17.0417 112.274 18.1478C112.446 19.2658 112.695 20.2336 113.021 21.0512C113.352 21.8567 113.755 22.4878 114.227 22.9447C114.699 23.4015 115.235 23.63 115.835 23.63C116.435 23.63 116.972 23.4015 117.444 22.9447C117.916 22.4878 118.315 21.8567 118.641 21.0512C118.973 20.2336 119.225 19.2719 119.397 18.1658C119.569 17.0477 119.656 15.8275 119.656 14.505C119.656 13.1825 119.569 11.9683 119.397 10.8622C119.225 9.74415 118.973 8.78237 118.641 7.97687C118.315 7.15935 117.916 6.52217 117.444 6.06532C116.972 5.60847 116.435 5.38004 115.835 5.38004C115.235 5.38004 114.699 5.60847 114.227 6.06532C113.755 6.52217 113.352 7.15935 113.021 7.97687C112.695 8.78237 112.443 9.74415 112.264 10.8622C112.092 11.9683 112.006 13.1825 112.006 14.505Z" fill="#001AFF"/>
<path d="M97.8105 1.25037H109.338V5.81285H105.039V27.7596H102.1V5.81285H97.8105V1.25037Z" fill="#001AFF"/>
<path d="M98.9346 27.7596H95.2102L90.8539 16.0198L89.4178 18.7789V27.7596H86.4785V1.25037H89.4178V12.0344L94.7985 1.25037H98.5995L92.855 12.1065L98.9346 27.7596Z" fill="#001AFF"/>
<path d="M77.0987 23.4677C77.5008 23.4677 77.8168 23.2452 78.0466 22.8004C78.2764 22.3556 78.4359 21.7965 78.5253 21.1233L73.5371 1.25037H76.8498L80.0476 15.4968L82.8528 1.25037H86.0123L81.522 20.8167C80.9348 23.4015 80.3125 25.3191 79.6551 26.5694C78.9976 27.8077 78.2636 28.4269 77.453 28.4269C77.1977 28.4269 76.9743 28.4028 76.7828 28.3547C76.5977 28.3066 76.4349 28.2465 76.2945 28.1744C76.1604 28.1023 76.0392 28.0301 75.9307 27.958C75.8285 27.8859 75.7296 27.8197 75.6339 27.7596V22.7283C75.819 22.9567 76.0328 23.137 76.2753 23.2693C76.5179 23.4015 76.7923 23.4677 77.0987 23.4677Z" fill="#001AFF"/>
<path d="M71.0801 17.6068C70.5056 18.0275 69.8546 18.2379 69.1269 18.2379H65.91V27.7596H62.9707V1.25037H69.3663C70.1131 1.25037 70.7609 1.44272 71.3099 1.82744C71.8652 2.21215 72.3247 2.77119 72.6886 3.50456C73.0524 4.23792 73.3237 5.12757 73.5024 6.17351C73.6811 7.21946 73.7705 8.40967 73.7705 9.74415C73.7705 10.9825 73.6651 12.1246 73.4545 13.1705C73.2439 14.2044 72.9375 15.1001 72.5354 15.8575C72.1396 16.6029 71.6545 17.186 71.0801 17.6068ZM65.91 13.6574H68.6961C69.3599 13.6574 69.8801 13.3509 70.2567 12.7377C70.6397 12.1246 70.8312 11.1267 70.8312 9.74415C70.8312 9.04686 70.7801 8.45175 70.678 7.95883C70.5822 7.46592 70.4418 7.06317 70.2567 6.75059C70.078 6.42598 69.8546 6.19155 69.5865 6.04728C69.3248 5.89099 69.028 5.81285 68.6961 5.81285H65.91V13.6574Z" fill="#001AFF"/>
<path d="M50.9688 1.25037H62.4961V5.81285H58.1973V27.7596H55.258V5.81285H50.9688V1.25037Z" fill="#001AFF"/>
<path d="M43.7524 22.9988C44.1737 23.4196 44.6524 23.63 45.1886 23.63C45.8077 23.63 46.3119 23.4496 46.7013 23.089C47.0906 22.7283 47.4002 22.2895 47.63 21.7725C47.8662 21.2555 48.0417 20.7145 48.1566 20.1495C48.2715 19.5844 48.3608 19.0915 48.4247 18.6707H51.3448C51.1852 20.3298 50.9203 21.7725 50.5501 22.9988C50.1799 24.213 49.7299 25.2229 49.2002 26.0284C48.6704 26.8339 48.0736 27.435 47.4098 27.8318C46.7524 28.2285 46.0502 28.4269 45.3035 28.4269C44.2567 28.4269 43.328 28.1023 42.5173 27.4531C41.7131 26.7918 41.0333 25.8541 40.478 24.6398C39.9291 23.4256 39.511 21.9649 39.2238 20.2577C38.9366 18.5385 38.793 16.6209 38.793 14.505C38.793 12.87 38.8759 11.3912 39.0419 10.0688C39.2079 8.7463 39.4376 7.57412 39.7312 6.55222C40.0312 5.5183 40.3823 4.62865 40.7844 3.88326C41.1865 3.12586 41.6238 2.5067 42.0961 2.02581C42.5748 1.53289 43.0758 1.17222 43.5992 0.9438C44.1226 0.703353 44.6524 0.58313 45.1886 0.58313C45.9545 0.58313 46.6343 0.73341 47.2279 1.03397C47.8215 1.33453 48.3417 1.73727 48.7885 2.24221C49.2353 2.74715 49.6151 3.32422 49.9278 3.97343C50.247 4.62264 50.5055 5.29589 50.7033 5.99318C50.9076 6.67846 51.0576 7.36974 51.1533 8.06704C51.2554 8.75231 51.3193 9.38348 51.3448 9.96056H48.4055C48.3672 9.70809 48.3193 9.41955 48.2619 9.09495C48.2044 8.75832 48.1247 8.4217 48.0225 8.08507C47.9268 7.74845 47.8023 7.41783 47.6491 7.09323C47.5023 6.76862 47.3172 6.48009 47.0938 6.22762C46.8704 5.97515 46.6024 5.77077 46.2896 5.61448C45.9768 5.45819 45.6098 5.38004 45.1886 5.38004C45.0098 5.38004 44.7992 5.42212 44.5567 5.50628C44.3141 5.59044 44.0652 5.75274 43.8099 5.99318C43.5546 6.22161 43.3024 6.54621 43.0535 6.96699C42.8046 7.38778 42.5812 7.9408 42.3833 8.62608C42.1918 9.29933 42.0354 10.1168 41.9142 11.0786C41.7929 12.0404 41.7323 13.1825 41.7323 14.505C41.7323 15.9357 41.812 17.216 41.9716 18.3461C42.1312 19.4762 42.361 20.432 42.661 21.2135C42.961 21.9949 43.3248 22.59 43.7524 22.9988Z" fill="#001AFF"/>
<path d="M34.9771 27.7596V15.9116H29.4528V27.7596H26.5039V1.25037H29.4528V11.3311H34.9771V1.25037H37.9164V27.7596H34.9771Z" fill="#001AFF"/>
<path d="M15.9084 27.3629C15.0595 26.6536 14.3542 25.6798 13.7925 24.4415C13.2308 23.1911 12.8095 21.7184 12.5287 20.0233C12.2478 18.3161 12.1074 16.4767 12.1074 14.505C12.1074 12.5213 12.2478 10.6819 12.5287 8.98675C12.8095 7.2916 13.2308 5.82487 13.7925 4.58657C14.3542 3.33625 15.0595 2.35643 15.9084 1.64711C16.7573 0.937789 17.7467 0.58313 18.8764 0.58313C19.9168 0.58313 20.8551 0.937789 21.6912 1.64711C22.5274 2.35643 23.2359 3.33625 23.8167 4.58657C24.4039 5.82487 24.8539 7.2916 25.1667 8.98675C25.4794 10.6819 25.6358 12.5213 25.6358 14.505C25.6358 16.4767 25.4794 18.3161 25.1667 20.0233C24.8539 21.7184 24.4039 23.1911 23.8167 24.4415C23.2359 25.6798 22.5274 26.6536 21.6912 27.3629C20.8551 28.0722 19.9168 28.4269 18.8764 28.4269C17.7467 28.4269 16.7573 28.0722 15.9084 27.3629ZM15.0467 14.505C15.0467 15.8275 15.1361 17.0417 15.3148 18.1478C15.4871 19.2658 15.7361 20.2336 16.0616 21.0512C16.3935 21.8567 16.7956 22.4878 17.2679 22.9447C17.7403 23.4015 18.2764 23.63 18.8764 23.63C19.4764 23.63 20.0126 23.4015 20.4849 22.9447C20.9572 22.4878 21.3561 21.8567 21.6817 21.0512C22.0136 20.2336 22.2657 19.2719 22.438 18.1658C22.6104 17.0477 22.6965 15.8275 22.6965 14.505C22.6965 13.1825 22.6104 11.9683 22.438 10.8622C22.2657 9.74415 22.0136 8.78237 21.6817 7.97687C21.3561 7.15935 20.9572 6.52217 20.4849 6.06532C20.0126 5.60847 19.4764 5.38004 18.8764 5.38004C18.2764 5.38004 17.7403 5.60847 17.2679 6.06532C16.7956 6.52217 16.3935 7.15935 16.0616 7.97687C15.7361 8.78237 15.4839 9.74415 15.3052 10.8622C15.1329 11.9683 15.0467 13.1825 15.0467 14.505Z" fill="#001AFF"/>
<path d="M12.6084 27.7596H8.88405L4.52777 16.0198L3.09164 18.7789V27.7596H0.152344V1.25037H3.09164V12.0344L8.47236 1.25037H12.2733L6.52879 12.1065L12.6084 27.7596Z" fill="#001AFF"/>
</svg>
