<svg width="50" height="28" viewBox="0 0 50 28" fill="none" xmlns="http://www.w3.org/2000/svg">
<path d="M43.1916 17.5235C42.9746 17.5475 42.8214 17.5595 42.732 17.5595C42.0363 17.5595 41.4459 17.4513 40.9608 17.2349C40.4757 17.0185 40.0736 16.73 39.7545 16.3693C39.4353 16.0086 39.1864 15.5879 39.0077 15.107C38.8289 14.6261 38.6949 14.1272 38.6055 13.6102C38.5162 13.0932 38.4619 12.5703 38.4428 12.0413C38.4236 11.5123 38.4141 11.0134 38.4141 10.5445V0.806396H41.2385V9.21001C41.2385 10.0756 41.2831 10.7849 41.3725 11.338C41.4619 11.879 41.6055 12.3058 41.8033 12.6183C42.0012 12.9309 42.2565 13.1473 42.5693 13.2676C42.8884 13.3758 43.2746 13.4299 43.7278 13.4299C43.9129 13.4299 44.1235 13.4178 44.3597 13.3938C44.6022 13.3577 44.8448 13.3096 45.0873 13.2495C45.3362 13.1894 45.5756 13.1173 45.8054 13.0331C46.0415 12.9369 46.2522 12.8347 46.4373 12.7265V0.806396H49.3766V27.3157H46.4373V16.712C45.9458 16.9043 45.4926 17.0606 45.0777 17.1808C44.6629 17.289 44.2958 17.3732 43.9767 17.4333C43.6639 17.4814 43.4022 17.5114 43.1916 17.5235Z" fill="#001AFF"/>
<path d="M35.5645 17.1628C34.99 17.5836 34.339 17.794 33.6113 17.794H30.3944V27.3157H27.4551V0.806396H33.8507C34.5975 0.806396 35.2453 0.998754 35.7942 1.38347C36.3495 1.76818 36.8091 2.32722 37.1729 3.06059C37.5368 3.79395 37.808 4.6836 37.9867 5.72955C38.1655 6.77549 38.2548 7.9657 38.2548 9.30018C38.2548 10.5385 38.1495 11.6806 37.9389 12.7265C37.7282 13.7605 37.4219 14.6561 37.0197 15.4135C36.624 16.1589 36.1389 16.742 35.5645 17.1628ZM30.3944 13.2135H33.1805C33.8443 13.2135 34.3645 12.9069 34.7411 12.2937C35.124 11.6806 35.3155 10.6828 35.3155 9.30018C35.3155 8.60289 35.2645 8.00778 35.1623 7.51486C35.0666 7.02195 34.9262 6.6192 34.7411 6.30662C34.5624 5.98201 34.339 5.74758 34.0709 5.60331C33.8092 5.44702 33.5124 5.36888 33.1805 5.36888H30.3944V13.2135Z" fill="#001AFF"/>
<path d="M25.4755 15.8283H18.5724V22.5187H26.4138V27.3157H15.748V0.806396H26.0787V5.36888H18.5724V11.2478H25.4755V15.8283Z" fill="#001AFF"/>
<path d="M9.82432 0.806396H14.1423V27.3157H11.4328V5.15247H11.3945L8.72328 27.3157H5.86058L3.29468 5.15247H3.25639V27.3157H0.546875V0.806396H4.84571L7.31587 21.4367H7.35416L9.82432 0.806396Z" fill="#001AFF"/>
</svg>
