<svg width="216" height="27" viewBox="0 0 216 27" fill="none" xmlns="http://www.w3.org/2000/svg">
<path d="M215.805 26.617H212.607L211.707 21.1529H206.508L205.532 26.617H202.43L207.466 0.107758H210.826L215.805 26.617ZM210.884 16.5724L209.132 6.07685H209.093L207.293 16.5724H210.884Z" fill="#001AFF"/>
<path d="M200.051 16.4642C199.476 16.8849 198.825 17.0953 198.098 17.0953H194.881V26.617H191.941V0.107758H198.337C199.084 0.107758 199.732 0.300115 200.281 0.68483C200.836 1.06954 201.295 1.62858 201.659 2.36195C202.023 3.09531 202.294 3.98496 202.473 5.03091C202.652 6.07685 202.741 7.26706 202.741 8.60154C202.741 9.83984 202.636 10.982 202.425 12.0279C202.215 13.0618 201.908 13.9575 201.506 14.7149C201.11 15.4603 200.625 16.0434 200.051 16.4642ZM194.881 12.5148H197.667C198.331 12.5148 198.851 12.2082 199.227 11.5951C199.61 10.982 199.802 9.98411 199.802 8.60154C199.802 7.90425 199.751 7.30914 199.649 6.81622C199.553 6.32331 199.413 5.92056 199.227 5.60798C199.049 5.28338 198.825 5.04894 198.557 4.90467C198.296 4.74838 197.999 4.67024 197.667 4.67024H194.881V12.5148Z" fill="#001AFF"/>
<path d="M187.492 26.617V8.67368H187.454L181.891 26.617H178.904V0.107758H181.729V18.1593H181.767L187.339 0.107758H190.317V26.617H187.492Z" fill="#001AFF"/>
<path d="M167.141 0.107758H178.668V4.67024H174.369V26.617H171.43V4.67024H167.141V0.107758Z" fill="#001AFF"/>
<path d="M164.914 16.4642C164.34 16.8849 163.689 17.0953 162.961 17.0953H159.744V26.617H156.805V0.107758H163.2C163.947 0.107758 164.595 0.300115 165.144 0.68483C165.699 1.06954 166.159 1.62858 166.523 2.36195C166.886 3.09531 167.158 3.98496 167.336 5.03091C167.515 6.07685 167.604 7.26706 167.604 8.60154C167.604 9.83984 167.499 10.982 167.288 12.0279C167.078 13.0618 166.771 13.9575 166.369 14.7149C165.974 15.4603 165.489 16.0434 164.914 16.4642ZM159.744 12.5148H162.53C163.194 12.5148 163.714 12.2082 164.091 11.5951C164.474 10.982 164.665 9.98411 164.665 8.60154C164.665 7.90425 164.614 7.30914 164.512 6.81622C164.416 6.32331 164.276 5.92056 164.091 5.60798C163.912 5.28338 163.689 5.04894 163.42 4.90467C163.159 4.74838 162.862 4.67024 162.53 4.67024H159.744V12.5148Z" fill="#001AFF"/>
<path d="M156.166 26.617H152.968L152.068 21.1529H146.87L145.893 26.617H142.791L147.827 0.107758H151.188L156.166 26.617ZM151.245 16.5724L149.493 6.07685H149.455L147.655 16.5724H151.245Z" fill="#001AFF"/>
<path d="M139.634 0.414327C140.068 0.618707 140.445 0.895221 140.764 1.24387C141.083 1.59252 141.351 1.99526 141.568 2.45211C141.785 2.90896 141.958 3.38986 142.085 3.8948C142.213 4.38771 142.302 4.89265 142.353 5.40961C142.411 5.92657 142.44 6.41949 142.44 6.88836C142.44 7.56161 142.408 8.16874 142.344 8.70974C142.28 9.23873 142.178 9.72563 142.037 10.1705C141.903 10.6033 141.725 11 141.501 11.3607C141.284 11.7093 141.023 12.0279 140.716 12.3164C141.189 12.6531 141.568 13.0678 141.856 13.5608C142.143 14.0537 142.363 14.5887 142.516 15.1657C142.669 15.7308 142.771 16.3199 142.823 16.933C142.874 17.5341 142.899 18.1172 142.899 18.6823C142.899 19.9687 142.775 21.1048 142.526 22.0906C142.277 23.0764 141.926 23.906 141.473 24.5792C141.019 25.2405 140.467 25.7454 139.816 26.0941C139.172 26.4427 138.453 26.617 137.662 26.617H131.209V0.107758H138.112C138.686 0.107758 139.194 0.209947 139.634 0.414327ZM138.476 15.0215C138.195 14.9493 137.911 14.9133 137.624 14.9133H134.033V22.0365H137.7C138.026 22.0365 138.326 21.9644 138.6 21.8201C138.875 21.6758 139.111 21.4594 139.309 21.1709C139.513 20.8703 139.669 20.4977 139.778 20.0528C139.893 19.596 139.95 19.061 139.95 18.4478C139.95 17.6784 139.883 17.0653 139.749 16.6084C139.615 16.1396 139.436 15.7789 139.213 15.5264C138.996 15.2739 138.75 15.1056 138.476 15.0215ZM139.031 9.84585C139.21 9.60541 139.353 9.29283 139.462 8.90811C139.57 8.5234 139.625 8.06054 139.625 7.51953C139.625 6.95448 139.574 6.49162 139.472 6.13095C139.376 5.75826 139.242 5.46371 139.069 5.24731C138.897 5.03091 138.696 4.88063 138.466 4.79647C138.236 4.71231 137.994 4.67024 137.739 4.67024H134.033V10.5492H137.662C137.917 10.5492 138.163 10.4951 138.399 10.3869C138.635 10.2787 138.846 10.0983 139.031 9.84585Z" fill="#001AFF"/>
<path d="M130.964 26.617H127.24L122.883 14.8772L121.447 17.6363V26.617H118.508V0.107758H121.447V10.8918L126.828 0.107758H130.629L124.884 10.9639L130.964 26.617Z" fill="#001AFF"/>
<path d="M112.096 13.8855H117.591V18.7545H112.096V13.8855Z" fill="#001AFF"/>
<path d="M107.8 10.5852C108.132 10.6093 108.483 10.6994 108.854 10.8557C109.23 11 109.607 11.2344 109.983 11.559C110.366 11.8836 110.711 12.3465 111.017 12.9476C111.324 13.5367 111.573 14.2941 111.764 15.2198C111.956 16.1335 112.051 17.2636 112.051 18.6101C112.051 19.9446 111.956 21.0687 111.764 21.9824C111.573 22.8961 111.327 23.6535 111.027 24.2546C110.733 24.8437 110.405 25.3006 110.041 25.6252C109.677 25.9378 109.323 26.1722 108.978 26.3285C108.64 26.4728 108.327 26.5569 108.04 26.581C107.759 26.605 107.552 26.617 107.417 26.617H100.553V0.107758H110.797V4.67024H103.492V10.5492H106.987C107.197 10.5492 107.469 10.5612 107.8 10.5852ZM103.492 22.0365H106.671C106.939 22.0365 107.213 22.0004 107.494 21.9283C107.781 21.8562 108.043 21.6999 108.279 21.4594C108.522 21.219 108.72 20.8643 108.873 20.3955C109.026 19.9146 109.103 19.2774 109.103 18.4839C109.103 17.6544 109.026 17.0052 108.873 16.5363C108.726 16.0554 108.531 15.6947 108.289 15.4543C108.046 15.2138 107.772 15.0636 107.465 15.0034C107.165 14.9433 106.862 14.9133 106.556 14.9133H103.492V22.0365Z" fill="#001AFF"/>
<path d="M99.9143 26.617H96.7165L95.8165 21.1529H90.6177L89.6411 26.617H86.5391L91.5751 0.107758H94.9357L99.9143 26.617ZM94.9931 16.5724L93.241 6.07685H93.2027L91.4028 16.5724H94.9931Z" fill="#001AFF"/>
<path d="M75.7539 0.107758H87.2813V4.67024H82.9825V26.617H80.0432V4.67024H75.7539V0.107758Z" fill="#001AFF"/>
<path d="M75.5071 0.107758V26.617H59.7383V0.107758H62.4478V22.0365H66.2679V0.107758H68.9774V22.0365H72.7976V0.107758H75.5071Z" fill="#001AFF"/>
<path d="M55.2561 26.617H52.0583L51.1583 21.1529H45.9595L44.9829 26.617H41.8809L46.9169 0.107758H50.2775L55.2561 26.617ZM50.3349 16.5724L48.5828 6.07685H48.5445L46.7446 16.5724H50.3349Z" fill="#001AFF"/>
<path d="M41.4817 0.107758V26.617H25.7129V0.107758H28.4224V22.0365H32.2425V0.107758H34.952V22.0365H38.7722V0.107758H41.4817Z" fill="#001AFF"/>
<path d="M25.3147 26.617H22.1169L21.2169 21.1529H16.0181L15.0415 26.617H11.9395L16.9755 0.107758H20.3361L25.3147 26.617ZM20.3935 16.5724L18.6414 6.07685H18.6031L16.8032 16.5724H20.3935Z" fill="#001AFF"/>
<path d="M8.59235 26.617V14.769H3.06801V26.617H0.119141V0.107758H3.06801V10.1885H8.59235V0.107758H11.5316V26.617H8.59235Z" fill="#001AFF"/>
</svg>
