<svg width="92" height="28" viewBox="0 0 92 28" fill="none" xmlns="http://www.w3.org/2000/svg">
<path d="M78.4901 11.3116H81.2953C81.506 11.3116 81.774 11.3236 82.0996 11.3477C82.4315 11.3717 82.7857 11.4619 83.1623 11.6182C83.5389 11.7624 83.9155 11.9969 84.2921 12.3215C84.6686 12.6461 85.0101 13.1089 85.3165 13.71C85.6229 14.2991 85.8718 15.0565 86.0633 15.9823C86.2548 16.896 86.3505 18.0261 86.3505 19.3726C86.3505 20.707 86.2548 21.8311 86.0633 22.7448C85.8718 23.6585 85.6261 24.4159 85.3261 25.0171C85.0325 25.6061 84.7038 26.063 84.3399 26.3876C83.9825 26.7002 83.6314 26.9346 83.2868 27.0909C82.9485 27.2352 82.6357 27.3193 82.3485 27.3434C82.0677 27.3674 81.8602 27.3794 81.7262 27.3794H75.5508V0.870178H78.4901V11.3116ZM91.1951 0.870178V27.3794H88.2558V0.870178H91.1951ZM78.4901 15.6757V22.7989H80.9794C81.2475 22.7989 81.5219 22.7629 81.8028 22.6907C82.09 22.6186 82.3517 22.4623 82.5879 22.2219C82.8304 21.9814 83.0283 21.6268 83.1814 21.1579C83.3346 20.677 83.4112 20.0398 83.4112 19.2463C83.4112 18.4168 83.3346 17.7676 83.1814 17.2987C83.0346 16.8178 82.84 16.4571 82.5974 16.2167C82.3549 15.9763 82.0804 15.826 81.774 15.7659C81.474 15.7057 81.1709 15.6757 80.8645 15.6757H78.4901Z" fill="#001AFF"/>
<path d="M63.5488 0.870178H75.0762V5.43266H70.7774V27.3794H67.8381V5.43266H63.5488V0.870178Z" fill="#001AFF"/>
<path d="M64.2795 27.3794H61.0817L60.1817 21.9153H54.9829L54.0064 27.3794H50.9043L55.9403 0.870178H59.3009L64.2795 27.3794ZM59.3584 17.3348L57.6063 6.83927H57.568L55.768 17.3348H59.3584Z" fill="#001AFF"/>
<path d="M51.8741 27.3794H48.1497L43.7934 15.6396L42.3573 18.3988V27.3794H39.418V0.870178H42.3573V11.6542L47.738 0.870178H51.539L45.7944 11.7264L51.8741 27.3794Z" fill="#001AFF"/>
<path d="M38.6858 27.3794H35.488L34.588 21.9153H29.3892L28.4126 27.3794H25.3105L30.3466 0.870178H33.7072L38.6858 27.3794ZM33.7646 17.3348L32.0125 6.83927H31.9742L30.1743 17.3348H33.7646Z" fill="#001AFF"/>
<path d="M15.3265 0.870178H25.1496V27.3794H22.2103V5.43266H18.0838L18.0934 9.4361C18.0998 11.8526 18.0711 13.9866 18.0073 15.838C17.9498 17.6774 17.8541 19.2824 17.72 20.6529C17.5924 22.0115 17.4264 23.1536 17.2222 24.0793C17.0243 25.005 16.7881 25.7504 16.5137 26.3155C16.2392 26.8685 15.9265 27.2652 15.5754 27.5057C15.2243 27.7461 14.8382 27.8663 14.4169 27.8663C14.0722 27.8663 13.7659 27.8243 13.4978 27.7401C13.2361 27.668 12.9744 27.5297 12.7127 27.3253L12.7031 22.2579C12.7925 22.3421 12.885 22.4142 12.9808 22.4743C13.0829 22.5224 13.1818 22.5645 13.2776 22.6006C13.3733 22.6246 13.4595 22.6426 13.5361 22.6547C13.6191 22.6667 13.6829 22.6727 13.7276 22.6727C13.8999 22.6727 14.0595 22.6306 14.2063 22.5465C14.3595 22.4503 14.4935 22.2519 14.6084 21.9514C14.7297 21.6508 14.835 21.218 14.9243 20.6529C15.0137 20.0879 15.0871 19.3365 15.1446 18.3988C15.2084 17.461 15.2531 16.3009 15.2786 14.9183C15.3105 13.5357 15.3265 11.8826 15.3265 9.95907V0.870178Z" fill="#001AFF"/>
<path d="M0.730469 0.870178H12.143V27.3794H9.20367V5.43266H3.67934V27.3794H0.730469V0.870178Z" fill="#001AFF"/>
</svg>
