<svg width="122" height="29" viewBox="0 0 122 29" fill="none" xmlns="http://www.w3.org/2000/svg">
<path d="M118.907 1.23248H121.903L117.93 27.8139H115.115L113.411 12.269L112.913 7.12944L112.415 12.269L110.711 27.8139H107.973L103.971 1.23248H107.101L108.968 16.4528L109.371 20.6906L109.782 16.5429L111.372 1.23248H114.483L116.159 16.4528L116.59 20.6906L117.02 16.6151L118.907 1.23248Z" fill="#001AFF"/>
<path d="M103.294 16.2003H96.4385V23.035H104.251V27.8139H93.5566V1.23248H103.906V5.93923H96.4385V11.5837H103.294V16.2003Z" fill="#001AFF"/>
<path d="M86.6667 17.3905H83.6221V27.8139H80.7402V1.23248H87.6624C88.6518 1.26855 89.4113 1.49697 89.9411 1.91776C90.4772 2.33854 90.9304 2.95769 91.3006 3.77521C91.607 4.44846 91.8495 5.19384 92.0283 6.01136C92.207 6.82888 92.2963 7.76061 92.2963 8.80656C92.2963 10.0689 92.1272 11.3132 91.7889 12.5395C91.4506 13.7538 90.8921 14.6133 90.1134 15.1183C90.7645 15.6112 91.224 16.3145 91.4921 17.2282C91.7666 18.1299 91.9038 19.5125 91.9038 21.3759V23.1612C91.9038 24.3755 91.9293 25.199 91.9804 25.6318C92.057 26.3171 92.2357 26.822 92.5166 27.1466V27.8139H89.2709C89.1815 27.2248 89.1177 26.7499 89.0794 26.3892C89.0028 25.6438 88.9613 24.8804 88.9549 24.099L88.9358 21.6284C88.923 19.9332 88.7571 18.8031 88.4379 18.2381C88.1252 17.673 87.5348 17.3905 86.6667 17.3905ZM88.4571 12.5575C89.0443 12.0526 89.3379 11.0547 89.3379 9.56397C89.3379 7.95297 89.0539 6.87096 88.4858 6.31793C88.1667 6.00535 87.6879 5.84906 87.0497 5.84906H83.6221V12.9903H86.9635C87.6273 12.9903 88.1252 12.8461 88.4571 12.5575Z" fill="#001AFF"/>
<path d="M77.8336 25.8302C76.7805 27.6456 75.4337 28.5532 73.7933 28.5532C71.7636 28.5532 70.1679 27.327 69.0062 24.8744C67.8445 22.4098 67.2637 19.0316 67.2637 14.7396C67.2637 10.099 67.9243 6.52231 69.2455 4.00964C70.3945 1.82157 71.8561 0.727539 73.6305 0.727539C76.005 0.727539 77.7411 2.19426 78.8389 5.12772C79.4453 6.77478 79.7708 8.42785 79.8155 10.0869H76.8666C76.6752 8.81256 76.4294 7.85078 76.1294 7.20157C75.5933 6.04742 74.7986 5.47035 73.7454 5.47035C72.6731 5.47035 71.8274 6.28787 71.2083 7.92291C70.5891 9.54593 70.2796 11.8482 70.2796 14.8297C70.2796 17.8113 70.6051 20.0474 71.2561 21.5382C71.9136 23.017 72.7465 23.7563 73.755 23.7563C74.789 23.7563 75.5773 23.1191 76.1199 21.8448C76.4198 21.1595 76.6688 20.1316 76.8666 18.7611H79.7868C79.5315 21.6584 78.8804 24.0148 77.8336 25.8302Z" fill="#001AFF"/>
<path d="M60.2299 28.5531C58.213 28.5531 56.6715 27.5192 55.6056 25.4513C54.1758 22.9146 53.4609 19.2598 53.4609 14.487C53.4609 9.61793 54.1758 5.96314 55.6056 3.5226C56.6715 1.45476 58.213 0.420837 60.2299 0.420837C62.2469 0.420837 63.7884 1.45476 64.8543 3.5226C66.2777 5.96314 66.9893 9.61793 66.9893 14.487C66.9893 19.2598 66.2777 22.9146 64.8543 25.4513C63.7884 27.5192 62.2469 28.5531 60.2299 28.5531ZM63.016 21.4118C63.699 19.7888 64.0405 17.4805 64.0405 14.487C64.0405 11.5054 63.6958 9.20316 63.0065 7.58014C62.3235 5.9451 61.398 5.12758 60.2299 5.12758C59.0619 5.12758 58.13 5.93909 57.4342 7.56211C56.7385 9.18512 56.3907 11.4934 56.3907 14.487C56.3907 17.4805 56.7385 19.7888 57.4342 21.4118C58.13 23.0349 59.0619 23.8464 60.2299 23.8464C61.398 23.8464 62.3267 23.0349 63.016 21.4118Z" fill="#001AFF"/>
<path d="M41.7263 27.8139H38.9785V1.23248H43.2678L45.8337 22.1333L48.3804 1.23248H52.6218V27.8139H49.874V9.83447C49.874 9.31751 49.8772 8.59617 49.8836 7.67045C49.89 6.7327 49.8932 6.01136 49.8932 5.50643L47.2219 27.8139H44.3592L41.7072 5.50643C41.7072 6.01136 41.7104 6.7327 41.7168 7.67045C41.7231 8.59617 41.7263 9.31751 41.7263 9.83447V27.8139Z" fill="#001AFF"/>
<path d="M32.4426 23.9725C33.1383 23.9725 33.7032 23.8282 34.1373 23.5397C34.9606 22.9867 35.3723 21.9587 35.3723 20.456C35.3723 19.5783 35.1681 18.8991 34.7596 18.4182C34.3511 17.9493 33.7096 17.5345 32.8352 17.1739L31.3416 16.5427C29.8735 15.9175 28.8587 15.2383 28.297 14.5049C27.3459 13.2786 26.8704 11.3611 26.8704 8.7522C26.8704 6.37178 27.33 4.3941 28.2491 2.81918C29.1682 1.24425 30.5182 0.456787 32.299 0.456787C33.7862 0.456787 35.0532 1.20217 36.1 2.69294C37.1531 4.17169 37.7053 6.32369 37.7563 9.14894H34.9223C34.8713 7.54997 34.5011 6.41386 33.8117 5.74061C33.3522 5.29578 32.7809 5.07337 32.0979 5.07337C31.3384 5.07337 30.732 5.3619 30.2788 5.93897C29.8257 6.51605 29.5991 7.32154 29.5991 8.35547C29.5991 9.30523 29.8225 10.0145 30.2693 10.4834C30.5565 10.796 31.1692 11.1627 32.1075 11.5835L34.5394 12.6835C35.6053 13.1644 36.4095 13.8076 36.9521 14.6131C37.7946 15.8634 38.2159 17.6728 38.2159 20.0412C38.2159 22.4697 37.7212 24.4894 36.7319 26.1004C35.7489 27.6994 34.3575 28.4989 32.5575 28.4989C30.7193 28.4989 29.2735 27.7114 28.2204 26.1365C27.1672 24.5496 26.6406 22.3735 26.6406 19.6084H29.4555C29.5448 20.8226 29.7203 21.7303 29.982 22.3314C30.4607 23.4255 31.2809 23.9725 32.4426 23.9725Z" fill="#001AFF"/>
<path d="M19.6733 28.5531C17.6563 28.5531 16.1149 27.5192 15.0489 25.4513C13.6192 22.9146 12.9043 19.2598 12.9043 14.487C12.9043 9.61793 13.6192 5.96314 15.0489 3.5226C16.1149 1.45476 17.6563 0.420837 19.6733 0.420837C21.6903 0.420837 23.2317 1.45476 24.2976 3.5226C25.721 5.96314 26.4327 9.61793 26.4327 14.487C26.4327 19.2598 25.721 22.9146 24.2976 25.4513C23.2317 27.5192 21.6903 28.5531 19.6733 28.5531ZM22.4594 21.4118C23.1424 19.7888 23.4838 17.4805 23.4838 14.487C23.4838 11.5054 23.1392 9.20316 22.4498 7.58014C21.7669 5.9451 20.8413 5.12758 19.6733 5.12758C18.5052 5.12758 17.5733 5.93909 16.8776 7.56211C16.1819 9.18512 15.834 11.4934 15.834 14.487C15.834 17.4805 16.1819 19.7888 16.8776 21.4118C17.5733 23.0349 18.5052 23.8464 19.6733 23.8464C20.8413 23.8464 21.77 23.0349 22.4594 21.4118Z" fill="#001AFF"/>
<path d="M10.5914 25.8302C9.53828 27.6456 8.19151 28.5532 6.55112 28.5532C4.52138 28.5532 2.92567 27.327 1.764 24.8744C0.602322 22.4098 0.0214844 19.0316 0.0214844 14.7396C0.0214844 10.099 0.682107 6.52231 2.00335 4.00964C3.15226 1.82157 4.61393 0.727539 6.38836 0.727539C8.76277 0.727539 10.4989 2.19426 11.5967 5.12772C12.2031 6.77478 12.5286 8.42785 12.5733 10.0869H9.62445C9.43297 8.81256 9.18723 7.85078 8.88723 7.20157C8.35108 6.04742 7.55641 5.47035 6.50325 5.47035C5.43093 5.47035 4.58521 6.28787 3.96607 7.92291C3.34694 9.54593 3.03737 11.8482 3.03737 14.8297C3.03737 17.8113 3.3629 20.0474 4.01394 21.5382C4.67138 23.017 5.50433 23.7563 6.51282 23.7563C7.54684 23.7563 8.33512 23.1191 8.87766 21.8448C9.17765 21.1595 9.42658 20.1316 9.62445 18.7611H12.5446C12.2893 21.6584 11.6382 24.0148 10.5914 25.8302Z" fill="#001AFF"/>
</svg>
